<svg width="681" height="110" viewBox="0 0 681 110" fill="none" xmlns="http://www.w3.org/2000/svg">
<path d="M73.9201 106.658H72.835L77.038 96.9332H77.9995L82.1751 106.658H81.0763L80.0049 104.103H74.9777L73.9201 106.658ZM75.3486 103.197H79.634L77.4913 98.0321L75.3486 103.197Z" fill="black"/>
<path d="M86.4495 101.013H84.6364V104.762C84.6364 105.001 84.6593 105.197 84.7051 105.353C84.7509 105.509 84.815 105.632 84.8974 105.724C84.989 105.806 85.0943 105.866 85.2133 105.903C85.3324 105.93 85.4606 105.944 85.5979 105.944C85.7261 105.944 85.8589 105.925 85.9962 105.889C86.1428 105.852 86.2801 105.802 86.4083 105.738L86.4495 106.548C86.2847 106.612 86.1107 106.658 85.9276 106.685C85.7536 106.722 85.5613 106.74 85.3507 106.74C85.1767 106.74 84.9936 106.717 84.8013 106.672C84.609 106.626 84.4304 106.539 84.2656 106.411C84.1007 106.283 83.9634 106.109 83.8535 105.889C83.7528 105.669 83.7024 105.381 83.7024 105.023V101.013H82.3701V100.23H83.7024V98.4167H84.6364V100.23H86.4495V101.013Z" fill="black"/>
<path d="M92.3885 106.658H91.3995V96.9332H97.2646V97.8123H92.3885V101.191H96.9212V102.057H92.3885V106.658Z" fill="black"/>
<path d="M103.151 106.658C103.132 106.484 103.119 106.292 103.109 106.081C103.1 105.87 103.096 105.696 103.096 105.559H103.068C102.885 105.935 102.588 106.241 102.175 106.479C101.763 106.708 101.328 106.823 100.871 106.823C100.056 106.823 99.4421 106.58 99.03 106.095C98.6271 105.609 98.4257 104.968 98.4257 104.172V100.23H99.3597V103.787C99.3597 104.126 99.3872 104.433 99.4421 104.708C99.4971 104.982 99.5886 105.22 99.7168 105.422C99.8542 105.614 100.033 105.765 100.253 105.875C100.481 105.985 100.765 106.04 101.104 106.04C101.351 106.04 101.589 105.989 101.818 105.889C102.056 105.788 102.267 105.637 102.45 105.435C102.633 105.225 102.78 104.964 102.89 104.653C103 104.332 103.055 103.957 103.055 103.526V100.23H103.989V105.243C103.989 105.417 103.993 105.642 104.002 105.916C104.011 106.191 104.025 106.438 104.043 106.658H103.151Z" fill="black"/>
<path d="M109.36 101.013H107.547V104.762C107.547 105.001 107.57 105.197 107.615 105.353C107.661 105.509 107.725 105.632 107.808 105.724C107.899 105.806 108.005 105.866 108.124 105.903C108.243 105.93 108.371 105.944 108.508 105.944C108.636 105.944 108.769 105.925 108.907 105.889C109.053 105.852 109.19 105.802 109.319 105.738L109.36 106.548C109.195 106.612 109.021 106.658 108.838 106.685C108.664 106.722 108.472 106.74 108.261 106.74C108.087 106.74 107.904 106.717 107.712 106.672C107.519 106.626 107.341 106.539 107.176 106.411C107.011 106.283 106.874 106.109 106.764 105.889C106.663 105.669 106.613 105.381 106.613 105.023V101.013H105.28V100.23H106.613V98.4167H107.547V100.23H109.36V101.013Z" fill="black"/>
<path d="M115.491 106.658C115.473 106.484 115.459 106.292 115.45 106.081C115.441 105.87 115.436 105.696 115.436 105.559H115.409C115.226 105.935 114.928 106.241 114.516 106.479C114.104 106.708 113.669 106.823 113.211 106.823C112.396 106.823 111.783 106.58 111.371 106.095C110.968 105.609 110.766 104.968 110.766 104.172V100.23H111.7V103.787C111.7 104.126 111.728 104.433 111.783 104.708C111.838 104.982 111.929 105.22 112.057 105.422C112.195 105.614 112.373 105.765 112.593 105.875C112.822 105.985 113.106 106.04 113.445 106.04C113.692 106.04 113.93 105.989 114.159 105.889C114.397 105.788 114.608 105.637 114.791 105.435C114.974 105.225 115.12 104.964 115.23 104.653C115.34 104.332 115.395 103.957 115.395 103.526V100.23H116.329V105.243C116.329 105.417 116.334 105.642 116.343 105.916C116.352 106.191 116.366 106.438 116.384 106.658H115.491Z" fill="black"/>
<path d="M118.802 101.645C118.802 101.471 118.798 101.246 118.788 100.971C118.779 100.697 118.766 100.45 118.747 100.23H119.64C119.658 100.404 119.672 100.596 119.681 100.807C119.69 101.017 119.695 101.191 119.695 101.329H119.722C119.906 100.953 120.18 100.651 120.547 100.422C120.913 100.184 121.325 100.065 121.783 100.065C121.902 100.065 122.007 100.069 122.099 100.079C122.199 100.088 122.3 100.106 122.401 100.134L122.277 101.013C122.222 100.994 122.131 100.976 122.003 100.958C121.874 100.939 121.746 100.93 121.618 100.93C121.371 100.93 121.133 100.976 120.904 101.068C120.675 101.159 120.473 101.306 120.299 101.507C120.135 101.699 119.997 101.951 119.887 102.263C119.787 102.565 119.736 102.931 119.736 103.361V106.658H118.802V101.645Z" fill="black"/>
<path d="M128.414 102.949C128.386 102.345 128.19 101.846 127.823 101.452C127.466 101.049 126.953 100.848 126.285 100.848C125.974 100.848 125.685 100.907 125.42 101.026C125.154 101.136 124.921 101.292 124.719 101.493C124.518 101.686 124.357 101.91 124.238 102.166C124.119 102.414 124.051 102.675 124.032 102.949H128.414ZM129.362 103.252C129.362 103.316 129.362 103.384 129.362 103.458C129.362 103.531 129.357 103.609 129.348 103.691H124.019C124.028 104.012 124.092 104.314 124.211 104.598C124.33 104.881 124.495 105.129 124.705 105.339C124.916 105.55 125.163 105.719 125.447 105.848C125.731 105.967 126.038 106.026 126.367 106.026C126.853 106.026 127.269 105.916 127.617 105.696C127.974 105.468 128.245 105.207 128.428 104.914L129.128 105.463C128.744 105.948 128.318 106.296 127.851 106.507C127.393 106.717 126.898 106.823 126.367 106.823C125.891 106.823 125.447 106.74 125.035 106.576C124.632 106.402 124.284 106.163 123.991 105.861C123.698 105.559 123.465 105.202 123.291 104.79C123.126 104.378 123.043 103.929 123.043 103.444C123.043 102.959 123.126 102.51 123.291 102.098C123.455 101.686 123.684 101.329 123.977 101.026C124.27 100.724 124.614 100.491 125.008 100.326C125.401 100.152 125.827 100.065 126.285 100.065C126.789 100.065 127.233 100.152 127.617 100.326C128.002 100.491 128.322 100.72 128.579 101.013C128.835 101.297 129.027 101.631 129.156 102.015C129.293 102.4 129.362 102.812 129.362 103.252Z" fill="black"/>
<path d="M131.536 108.581H130.753L131.673 105.353H132.648L131.536 108.581Z" fill="black"/>
<path d="M138.08 100.23L139.632 105.449H139.66L141.391 100.23H142.297L144.055 105.449H144.083L145.621 100.23H146.61L144.577 106.658H143.561L141.844 101.452H141.816L140.127 106.658H139.111L137.078 100.23H138.08Z" fill="black"/>
<path d="M153.108 102.949C153.081 102.345 152.884 101.846 152.518 101.452C152.161 101.049 151.648 100.848 150.979 100.848C150.668 100.848 150.379 100.907 150.114 101.026C149.848 101.136 149.615 101.292 149.413 101.493C149.212 101.686 149.052 101.91 148.933 102.166C148.814 102.414 148.745 102.675 148.727 102.949H153.108ZM154.056 103.252C154.056 103.316 154.056 103.384 154.056 103.458C154.056 103.531 154.051 103.609 154.042 103.691H148.713C148.722 104.012 148.786 104.314 148.905 104.598C149.024 104.881 149.189 105.129 149.4 105.339C149.61 105.55 149.858 105.719 150.141 105.848C150.425 105.967 150.732 106.026 151.062 106.026C151.547 106.026 151.964 105.916 152.312 105.696C152.669 105.468 152.939 105.207 153.122 104.914L153.823 105.463C153.438 105.948 153.012 106.296 152.545 106.507C152.087 106.717 151.593 106.823 151.062 106.823C150.586 106.823 150.141 106.74 149.729 106.576C149.326 106.402 148.978 106.163 148.685 105.861C148.392 105.559 148.159 105.202 147.985 104.79C147.82 104.378 147.738 103.929 147.738 103.444C147.738 102.959 147.82 102.51 147.985 102.098C148.15 101.686 148.379 101.329 148.672 101.026C148.965 100.724 149.308 100.491 149.702 100.326C150.096 100.152 150.521 100.065 150.979 100.065C151.483 100.065 151.927 100.152 152.312 100.326C152.696 100.491 153.017 100.72 153.273 101.013C153.53 101.297 153.722 101.631 153.85 102.015C153.987 102.4 154.056 102.812 154.056 103.252Z" fill="black"/>
<path d="M160.46 105.573V106.658H159.526V96.2739H160.46V101.342H160.488C160.763 100.921 161.12 100.605 161.559 100.395C161.999 100.175 162.452 100.065 162.919 100.065C163.423 100.065 163.876 100.152 164.279 100.326C164.691 100.5 165.039 100.738 165.323 101.04C165.616 101.342 165.84 101.699 165.996 102.112C166.161 102.524 166.243 102.968 166.243 103.444C166.243 103.92 166.161 104.364 165.996 104.776C165.84 105.188 165.616 105.545 165.323 105.848C165.039 106.15 164.691 106.388 164.279 106.562C163.876 106.736 163.423 106.823 162.919 106.823C162.452 106.823 161.999 106.717 161.559 106.507C161.12 106.296 160.763 105.985 160.488 105.573H160.46ZM165.254 103.444C165.254 103.087 165.199 102.752 165.089 102.441C164.979 102.121 164.819 101.846 164.609 101.617C164.407 101.379 164.155 101.191 163.853 101.054C163.551 100.917 163.208 100.848 162.823 100.848C162.466 100.848 162.136 100.917 161.834 101.054C161.532 101.182 161.271 101.365 161.051 101.603C160.831 101.832 160.657 102.107 160.529 102.427C160.41 102.739 160.351 103.078 160.351 103.444C160.351 103.81 160.41 104.154 160.529 104.474C160.657 104.785 160.831 105.055 161.051 105.284C161.271 105.513 161.532 105.696 161.834 105.834C162.136 105.962 162.466 106.026 162.823 106.026C163.208 106.026 163.551 105.962 163.853 105.834C164.155 105.696 164.407 105.513 164.609 105.284C164.819 105.046 164.979 104.772 165.089 104.46C165.199 104.14 165.254 103.801 165.254 103.444Z" fill="black"/>
<path d="M173.148 102.949C173.121 102.345 172.924 101.846 172.558 101.452C172.2 101.049 171.688 100.848 171.019 100.848C170.708 100.848 170.419 100.907 170.154 101.026C169.888 101.136 169.655 101.292 169.453 101.493C169.252 101.686 169.092 101.91 168.973 102.166C168.854 102.414 168.785 102.675 168.767 102.949H173.148ZM174.096 103.252C174.096 103.316 174.096 103.384 174.096 103.458C174.096 103.531 174.091 103.609 174.082 103.691H168.753C168.762 104.012 168.826 104.314 168.945 104.598C169.064 104.881 169.229 105.129 169.44 105.339C169.65 105.55 169.897 105.719 170.181 105.848C170.465 105.967 170.772 106.026 171.102 106.026C171.587 106.026 172.004 105.916 172.351 105.696C172.709 105.468 172.979 105.207 173.162 104.914L173.862 105.463C173.478 105.948 173.052 106.296 172.585 106.507C172.127 106.717 171.633 106.823 171.102 106.823C170.625 106.823 170.181 106.74 169.769 106.576C169.366 106.402 169.018 106.163 168.725 105.861C168.432 105.559 168.199 105.202 168.025 104.79C167.86 104.378 167.778 103.929 167.778 103.444C167.778 102.959 167.86 102.51 168.025 102.098C168.19 101.686 168.419 101.329 168.712 101.026C169.005 100.724 169.348 100.491 169.742 100.326C170.135 100.152 170.561 100.065 171.019 100.065C171.523 100.065 171.967 100.152 172.351 100.326C172.736 100.491 173.057 100.72 173.313 101.013C173.569 101.297 173.762 101.631 173.89 102.015C174.027 102.4 174.096 102.812 174.096 103.252Z" fill="black"/>
<path d="M177.066 106.658H176.132V96.2739H177.066V106.658Z" fill="black"/>
<path d="M180.513 106.658H179.579V100.23H180.513V106.658ZM180.706 97.7574C180.706 97.9497 180.637 98.1099 180.5 98.2381C180.362 98.3571 180.211 98.4167 180.046 98.4167C179.882 98.4167 179.73 98.3571 179.593 98.2381C179.456 98.1099 179.387 97.9497 179.387 97.7574C179.387 97.5651 179.456 97.4094 179.593 97.2904C179.73 97.1622 179.882 97.0981 180.046 97.0981C180.211 97.0981 180.362 97.1622 180.5 97.2904C180.637 97.4094 180.706 97.5651 180.706 97.7574Z" fill="black"/>
<path d="M187.903 102.949C187.876 102.345 187.679 101.846 187.312 101.452C186.955 101.049 186.443 100.848 185.774 100.848C185.463 100.848 185.174 100.907 184.909 101.026C184.643 101.136 184.41 101.292 184.208 101.493C184.007 101.686 183.847 101.91 183.727 102.166C183.608 102.414 183.54 102.675 183.521 102.949H187.903ZM188.851 103.252C188.851 103.316 188.851 103.384 188.851 103.458C188.851 103.531 188.846 103.609 188.837 103.691H183.508C183.517 104.012 183.581 104.314 183.7 104.598C183.819 104.881 183.984 105.129 184.194 105.339C184.405 105.55 184.652 105.719 184.936 105.848C185.22 105.967 185.527 106.026 185.856 106.026C186.342 106.026 186.758 105.916 187.106 105.696C187.464 105.468 187.734 105.207 187.917 104.914L188.617 105.463C188.233 105.948 187.807 106.296 187.34 106.507C186.882 106.717 186.388 106.823 185.856 106.823C185.38 106.823 184.936 106.74 184.524 106.576C184.121 106.402 183.773 106.163 183.48 105.861C183.187 105.559 182.954 105.202 182.78 104.79C182.615 104.378 182.532 103.929 182.532 103.444C182.532 102.959 182.615 102.51 182.78 102.098C182.945 101.686 183.173 101.329 183.467 101.026C183.76 100.724 184.103 100.491 184.497 100.326C184.89 100.152 185.316 100.065 185.774 100.065C186.278 100.065 186.722 100.152 187.106 100.326C187.491 100.491 187.811 100.72 188.068 101.013C188.324 101.297 188.517 101.631 188.645 102.015C188.782 102.4 188.851 102.812 188.851 103.252Z" fill="black"/>
<path d="M193.497 106.658H192.467L189.843 100.23H190.887L192.975 105.669H193.003L195.104 100.23H196.107L193.497 106.658Z" fill="black"/>
<path d="M202.47 102.949C202.443 102.345 202.246 101.846 201.88 101.452C201.522 101.049 201.01 100.848 200.341 100.848C200.03 100.848 199.741 100.907 199.476 101.026C199.21 101.136 198.977 101.292 198.775 101.493C198.574 101.686 198.414 101.91 198.295 102.166C198.176 102.414 198.107 102.675 198.089 102.949H202.47ZM203.418 103.252C203.418 103.316 203.418 103.384 203.418 103.458C203.418 103.531 203.413 103.609 203.404 103.691H198.075C198.084 104.012 198.148 104.314 198.267 104.598C198.386 104.881 198.551 105.129 198.762 105.339C198.972 105.55 199.219 105.719 199.503 105.848C199.787 105.967 200.094 106.026 200.424 106.026C200.909 106.026 201.326 105.916 201.674 105.696C202.031 105.468 202.301 105.207 202.484 104.914L203.184 105.463C202.8 105.948 202.374 106.296 201.907 106.507C201.449 106.717 200.955 106.823 200.424 106.823C199.947 106.823 199.503 106.74 199.091 106.576C198.688 106.402 198.34 106.163 198.047 105.861C197.754 105.559 197.521 105.202 197.347 104.79C197.182 104.378 197.1 103.929 197.1 103.444C197.1 102.959 197.182 102.51 197.347 102.098C197.512 101.686 197.741 101.329 198.034 101.026C198.327 100.724 198.67 100.491 199.064 100.326C199.458 100.152 199.883 100.065 200.341 100.065C200.845 100.065 201.289 100.152 201.674 100.326C202.058 100.491 202.379 100.72 202.635 101.013C202.891 101.297 203.084 101.631 203.212 102.015C203.349 102.4 203.418 102.812 203.418 103.252Z" fill="black"/>
<path d="M209.822 105.573V106.658H208.888V96.2739H209.822V101.342H209.85C210.125 100.921 210.482 100.605 210.921 100.395C211.361 100.175 211.814 100.065 212.281 100.065C212.785 100.065 213.238 100.152 213.641 100.326C214.053 100.5 214.401 100.738 214.685 101.04C214.978 101.342 215.202 101.699 215.358 102.112C215.523 102.524 215.605 102.968 215.605 103.444C215.605 103.92 215.523 104.364 215.358 104.776C215.202 105.188 214.978 105.545 214.685 105.848C214.401 106.15 214.053 106.388 213.641 106.562C213.238 106.736 212.785 106.823 212.281 106.823C211.814 106.823 211.361 106.717 210.921 106.507C210.482 106.296 210.125 105.985 209.85 105.573H209.822ZM214.616 103.444C214.616 103.087 214.561 102.752 214.451 102.441C214.341 102.121 214.181 101.846 213.97 101.617C213.769 101.379 213.517 101.191 213.215 101.054C212.913 100.917 212.569 100.848 212.185 100.848C211.828 100.848 211.498 100.917 211.196 101.054C210.894 101.182 210.633 101.365 210.413 101.603C210.193 101.832 210.019 102.107 209.891 102.427C209.772 102.739 209.712 103.078 209.712 103.444C209.712 103.81 209.772 104.154 209.891 104.474C210.019 104.785 210.193 105.055 210.413 105.284C210.633 105.513 210.894 105.696 211.196 105.834C211.498 105.962 211.828 106.026 212.185 106.026C212.569 106.026 212.913 105.962 213.215 105.834C213.517 105.696 213.769 105.513 213.97 105.284C214.181 105.046 214.341 104.772 214.451 104.46C214.561 104.14 214.616 103.801 214.616 103.444Z" fill="black"/>
<path d="M222.277 106.658C222.258 106.484 222.245 106.292 222.235 106.081C222.226 105.87 222.222 105.696 222.222 105.559H222.194C222.011 105.935 221.713 106.241 221.301 106.479C220.889 106.708 220.454 106.823 219.996 106.823C219.182 106.823 218.568 106.58 218.156 106.095C217.753 105.609 217.552 104.968 217.552 104.172V100.23H218.486V103.787C218.486 104.126 218.513 104.433 218.568 104.708C218.623 104.982 218.714 105.22 218.843 105.422C218.98 105.614 219.159 105.765 219.378 105.875C219.607 105.985 219.891 106.04 220.23 106.04C220.477 106.04 220.715 105.989 220.944 105.889C221.182 105.788 221.393 105.637 221.576 105.435C221.759 105.225 221.906 104.964 222.016 104.653C222.125 104.332 222.18 103.957 222.18 103.526V100.23H223.114V105.243C223.114 105.417 223.119 105.642 223.128 105.916C223.137 106.191 223.151 106.438 223.169 106.658H222.277Z" fill="black"/>
<path d="M227.799 105.655H227.826L229.818 100.23H230.835L227.634 108.32C227.442 108.814 227.195 109.208 226.892 109.501C226.599 109.803 226.174 109.954 225.615 109.954C225.331 109.954 225.052 109.927 224.777 109.872L224.873 109.02C225.093 109.094 225.322 109.13 225.56 109.13C225.881 109.13 226.132 109.03 226.316 108.828C226.499 108.636 226.659 108.357 226.796 107.99L227.318 106.644L224.571 100.23H225.615L227.799 105.655Z" fill="black"/>
<path d="M233.242 106.658H232.308V100.23H233.242V106.658ZM233.434 97.7574C233.434 97.9497 233.366 98.1099 233.228 98.2381C233.091 98.3571 232.94 98.4167 232.775 98.4167C232.61 98.4167 232.459 98.3571 232.322 98.2381C232.184 98.1099 232.116 97.9497 232.116 97.7574C232.116 97.5651 232.184 97.4094 232.322 97.2904C232.459 97.1622 232.61 97.0981 232.775 97.0981C232.94 97.0981 233.091 97.1622 233.228 97.2904C233.366 97.4094 233.434 97.5651 233.434 97.7574Z" fill="black"/>
<path d="M236.566 100.23C236.584 100.404 236.598 100.596 236.607 100.807C236.616 101.017 236.621 101.191 236.621 101.329H236.648C236.832 100.953 237.129 100.651 237.541 100.422C237.953 100.184 238.388 100.065 238.846 100.065C239.661 100.065 240.27 100.308 240.673 100.793C241.085 101.278 241.291 101.919 241.291 102.716V106.658H240.357V103.1C240.357 102.762 240.33 102.455 240.275 102.18C240.22 101.905 240.124 101.672 239.986 101.48C239.858 101.278 239.679 101.123 239.451 101.013C239.231 100.903 238.951 100.848 238.613 100.848C238.365 100.848 238.123 100.898 237.885 100.999C237.656 101.1 237.45 101.255 237.267 101.466C237.083 101.667 236.937 101.928 236.827 102.249C236.717 102.56 236.662 102.931 236.662 103.361V106.658H235.728V101.645C235.728 101.471 235.724 101.246 235.714 100.971C235.705 100.697 235.692 100.45 235.673 100.23H236.566Z" fill="black"/>
<path d="M244.053 107.949C244.309 108.279 244.657 108.558 245.097 108.787C245.545 109.016 246.017 109.13 246.511 109.13C246.969 109.13 247.358 109.062 247.679 108.924C247.999 108.796 248.256 108.618 248.448 108.389C248.649 108.16 248.796 107.89 248.888 107.578C248.979 107.276 249.025 106.951 249.025 106.603V105.394H248.997C248.75 105.797 248.398 106.109 247.94 106.328C247.491 106.548 247.033 106.658 246.566 106.658C246.063 106.658 245.605 106.576 245.193 106.411C244.79 106.246 244.442 106.022 244.149 105.738C243.865 105.445 243.641 105.097 243.476 104.694C243.32 104.291 243.242 103.856 243.242 103.389C243.242 102.931 243.32 102.501 243.476 102.098C243.641 101.695 243.865 101.342 244.149 101.04C244.442 100.738 244.79 100.5 245.193 100.326C245.605 100.152 246.063 100.065 246.566 100.065C247.033 100.065 247.491 100.175 247.94 100.395C248.389 100.614 248.741 100.93 248.997 101.342H249.025V100.23H249.959V106.603C249.959 106.951 249.909 107.322 249.808 107.716C249.716 108.109 249.538 108.471 249.272 108.801C249.016 109.13 248.663 109.405 248.215 109.625C247.766 109.845 247.184 109.954 246.47 109.954C245.875 109.954 245.307 109.84 244.767 109.611C244.227 109.382 243.764 109.066 243.38 108.663L244.053 107.949ZM244.231 103.361C244.231 103.7 244.286 104.021 244.396 104.323C244.506 104.625 244.662 104.891 244.863 105.12C245.074 105.349 245.33 105.532 245.632 105.669C245.934 105.797 246.278 105.861 246.662 105.861C247.02 105.861 247.349 105.802 247.651 105.683C247.954 105.564 248.215 105.394 248.434 105.175C248.654 104.955 248.823 104.694 248.943 104.392C249.071 104.08 249.135 103.737 249.135 103.361C249.135 103.023 249.071 102.702 248.943 102.4C248.823 102.098 248.654 101.832 248.434 101.603C248.215 101.374 247.954 101.191 247.651 101.054C247.349 100.917 247.02 100.848 246.662 100.848C246.278 100.848 245.934 100.917 245.632 101.054C245.33 101.191 245.074 101.374 244.863 101.603C244.662 101.832 244.506 102.098 244.396 102.4C244.286 102.702 244.231 103.023 244.231 103.361Z" fill="black"/>
<path d="M259.874 102.51C259.874 101.951 259.727 101.535 259.434 101.26C259.141 100.985 258.715 100.848 258.157 100.848C257.772 100.848 257.415 100.917 257.085 101.054C256.756 101.191 256.476 101.374 256.248 101.603L255.726 100.985C255.991 100.72 256.339 100.5 256.769 100.326C257.209 100.152 257.704 100.065 258.253 100.065C258.601 100.065 258.926 100.115 259.228 100.216C259.53 100.308 259.796 100.45 260.025 100.642C260.254 100.834 260.432 101.077 260.56 101.37C260.689 101.663 260.753 102.006 260.753 102.4V105.216C260.753 105.463 260.762 105.719 260.78 105.985C260.799 106.25 260.826 106.475 260.863 106.658H260.025C259.997 106.502 259.974 106.333 259.956 106.15C259.938 105.967 259.929 105.788 259.929 105.614H259.901C259.608 106.044 259.274 106.356 258.898 106.548C258.532 106.731 258.088 106.823 257.566 106.823C257.319 106.823 257.063 106.786 256.797 106.713C256.541 106.649 256.302 106.539 256.083 106.383C255.872 106.228 255.694 106.026 255.547 105.779C255.41 105.532 255.341 105.229 255.341 104.872C255.341 104.378 255.465 103.989 255.712 103.705C255.968 103.412 256.307 103.197 256.728 103.059C257.15 102.913 257.63 102.821 258.171 102.785C258.72 102.739 259.288 102.716 259.874 102.716V102.51ZM259.599 103.444C259.214 103.444 258.825 103.462 258.431 103.499C258.047 103.526 257.694 103.59 257.374 103.691C257.063 103.783 256.806 103.92 256.605 104.103C256.403 104.286 256.302 104.529 256.302 104.831C256.302 105.06 256.344 105.252 256.426 105.408C256.518 105.564 256.637 105.692 256.783 105.793C256.93 105.884 257.09 105.953 257.264 105.999C257.447 106.035 257.63 106.054 257.813 106.054C258.143 106.054 258.436 105.999 258.692 105.889C258.949 105.77 259.164 105.614 259.338 105.422C259.512 105.22 259.645 104.991 259.736 104.735C259.828 104.479 259.874 104.208 259.874 103.925V103.444H259.599Z" fill="black"/>
<path d="M271.222 101.699C271.066 101.452 270.837 101.251 270.535 101.095C270.242 100.93 269.921 100.848 269.573 100.848C269.198 100.848 268.859 100.917 268.557 101.054C268.255 101.182 267.994 101.365 267.774 101.603C267.563 101.832 267.399 102.107 267.28 102.427C267.17 102.739 267.115 103.078 267.115 103.444C267.115 103.81 267.17 104.149 267.28 104.46C267.399 104.772 267.563 105.046 267.774 105.284C267.985 105.513 268.241 105.696 268.543 105.834C268.845 105.962 269.184 106.026 269.56 106.026C269.972 106.026 270.32 105.948 270.604 105.793C270.887 105.637 271.121 105.435 271.304 105.188L272.005 105.71C271.73 106.049 271.391 106.319 270.988 106.521C270.594 106.722 270.118 106.823 269.56 106.823C269.038 106.823 268.566 106.74 268.145 106.576C267.724 106.402 267.362 106.163 267.06 105.861C266.767 105.559 266.538 105.202 266.373 104.79C266.208 104.378 266.126 103.929 266.126 103.444C266.126 102.959 266.208 102.51 266.373 102.098C266.538 101.686 266.767 101.329 267.06 101.026C267.362 100.724 267.724 100.491 268.145 100.326C268.566 100.152 269.038 100.065 269.56 100.065C269.99 100.065 270.425 100.161 270.865 100.353C271.313 100.537 271.675 100.811 271.95 101.177L271.222 101.699Z" fill="black"/>
<path d="M277.513 102.51C277.513 101.951 277.366 101.535 277.073 101.26C276.78 100.985 276.354 100.848 275.796 100.848C275.411 100.848 275.054 100.917 274.724 101.054C274.395 101.191 274.115 101.374 273.886 101.603L273.364 100.985C273.63 100.72 273.978 100.5 274.408 100.326C274.848 100.152 275.342 100.065 275.892 100.065C276.24 100.065 276.565 100.115 276.867 100.216C277.169 100.308 277.435 100.45 277.664 100.642C277.893 100.834 278.071 101.077 278.199 101.37C278.328 101.663 278.392 102.006 278.392 102.4V105.216C278.392 105.463 278.401 105.719 278.419 105.985C278.437 106.25 278.465 106.475 278.501 106.658H277.664C277.636 106.502 277.613 106.333 277.595 106.15C277.577 105.967 277.567 105.788 277.567 105.614H277.54C277.247 106.044 276.913 106.356 276.537 106.548C276.171 106.731 275.727 106.823 275.205 106.823C274.958 106.823 274.701 106.786 274.436 106.713C274.179 106.649 273.941 106.539 273.722 106.383C273.511 106.228 273.332 106.026 273.186 105.779C273.049 105.532 272.98 105.229 272.98 104.872C272.98 104.378 273.103 103.989 273.351 103.705C273.607 103.412 273.946 103.197 274.367 103.059C274.788 102.913 275.269 102.821 275.809 102.785C276.359 102.739 276.926 102.716 277.513 102.716V102.51ZM277.238 103.444C276.853 103.444 276.464 103.462 276.07 103.499C275.686 103.526 275.333 103.59 275.013 103.691C274.701 103.783 274.445 103.92 274.244 104.103C274.042 104.286 273.941 104.529 273.941 104.831C273.941 105.06 273.983 105.252 274.065 105.408C274.157 105.564 274.276 105.692 274.422 105.793C274.569 105.884 274.729 105.953 274.903 105.999C275.086 106.035 275.269 106.054 275.452 106.054C275.782 106.054 276.075 105.999 276.331 105.889C276.588 105.77 276.803 105.614 276.977 105.422C277.151 105.22 277.284 104.991 277.375 104.735C277.467 104.479 277.513 104.208 277.513 103.925V103.444H277.238Z" fill="black"/>
<path d="M280.798 101.645C280.798 101.471 280.793 101.246 280.784 100.971C280.775 100.697 280.761 100.45 280.743 100.23H281.636C281.654 100.404 281.668 100.596 281.677 100.807C281.686 101.017 281.691 101.191 281.691 101.329H281.718C281.901 100.953 282.176 100.651 282.542 100.422C282.908 100.184 283.321 100.065 283.778 100.065C283.897 100.065 284.003 100.069 284.094 100.079C284.195 100.088 284.296 100.106 284.397 100.134L284.273 101.013C284.218 100.994 284.126 100.976 283.998 100.958C283.87 100.939 283.742 100.93 283.614 100.93C283.366 100.93 283.128 100.976 282.899 101.068C282.67 101.159 282.469 101.306 282.295 101.507C282.13 101.699 281.993 101.951 281.883 102.263C281.782 102.565 281.732 102.931 281.732 103.361V106.658H280.798V101.645Z" fill="black"/>
<path d="M292.601 101.754C292.464 101.489 292.253 101.274 291.97 101.109C291.695 100.935 291.379 100.848 291.022 100.848C290.857 100.848 290.692 100.866 290.527 100.903C290.363 100.939 290.216 100.999 290.088 101.081C289.96 101.164 289.854 101.269 289.772 101.397C289.699 101.525 289.662 101.677 289.662 101.851C289.662 102.153 289.786 102.386 290.033 102.551C290.28 102.707 290.669 102.839 291.2 102.949C291.96 103.105 292.519 103.334 292.876 103.636C293.242 103.929 293.426 104.328 293.426 104.831C293.426 105.197 293.352 105.509 293.206 105.765C293.068 106.012 292.885 106.218 292.656 106.383C292.427 106.539 292.166 106.649 291.873 106.713C291.59 106.786 291.301 106.823 291.008 106.823C290.523 106.823 290.051 106.722 289.593 106.521C289.135 106.319 288.76 106.003 288.467 105.573L289.209 105.023C289.374 105.307 289.616 105.545 289.937 105.738C290.257 105.93 290.61 106.026 290.994 106.026C291.196 106.026 291.388 106.008 291.571 105.971C291.754 105.935 291.915 105.87 292.052 105.779C292.189 105.687 292.299 105.573 292.382 105.435C292.464 105.289 292.505 105.11 292.505 104.9C292.505 104.561 292.34 104.309 292.011 104.144C291.69 103.97 291.223 103.81 290.61 103.664C290.417 103.618 290.211 103.563 289.992 103.499C289.781 103.426 289.584 103.325 289.401 103.197C289.218 103.059 289.067 102.89 288.948 102.688C288.829 102.487 288.769 102.235 288.769 101.933C288.769 101.603 288.833 101.324 288.962 101.095C289.09 100.857 289.259 100.665 289.47 100.518C289.689 100.363 289.937 100.248 290.211 100.175C290.486 100.102 290.77 100.065 291.063 100.065C291.512 100.065 291.947 100.166 292.368 100.367C292.789 100.569 293.105 100.852 293.316 101.219L292.601 101.754Z" fill="black"/>
<path d="M296.273 101.287C296.447 100.912 296.736 100.614 297.139 100.395C297.542 100.175 297.972 100.065 298.43 100.065C299.245 100.065 299.854 100.308 300.257 100.793C300.669 101.278 300.875 101.919 300.875 102.716V106.658H299.941V103.1C299.941 102.762 299.913 102.455 299.858 102.18C299.803 101.905 299.707 101.672 299.57 101.48C299.442 101.278 299.263 101.123 299.034 101.013C298.814 100.903 298.535 100.848 298.196 100.848C297.949 100.848 297.706 100.898 297.468 100.999C297.239 101.1 297.033 101.255 296.85 101.466C296.667 101.667 296.521 101.928 296.411 102.249C296.301 102.56 296.246 102.931 296.246 103.361V106.658H295.312V96.2739H296.246V101.287H296.273Z" fill="black"/>
<path d="M309.679 103.444C309.679 103.929 309.592 104.378 309.418 104.79C309.254 105.202 309.02 105.559 308.718 105.861C308.416 106.163 308.054 106.402 307.633 106.576C307.212 106.74 306.749 106.823 306.245 106.823C305.751 106.823 305.293 106.74 304.872 106.576C304.451 106.402 304.089 106.163 303.787 105.861C303.485 105.559 303.247 105.202 303.073 104.79C302.908 104.378 302.825 103.929 302.825 103.444C302.825 102.959 302.908 102.51 303.073 102.098C303.247 101.686 303.485 101.329 303.787 101.026C304.089 100.724 304.451 100.491 304.872 100.326C305.293 100.152 305.751 100.065 306.245 100.065C306.749 100.065 307.212 100.152 307.633 100.326C308.054 100.491 308.416 100.724 308.718 101.026C309.02 101.329 309.254 101.686 309.418 102.098C309.592 102.51 309.679 102.959 309.679 103.444ZM308.69 103.444C308.69 103.087 308.631 102.752 308.512 102.441C308.402 102.121 308.242 101.846 308.031 101.617C307.82 101.379 307.564 101.191 307.262 101.054C306.96 100.917 306.621 100.848 306.245 100.848C305.87 100.848 305.531 100.917 305.229 101.054C304.936 101.191 304.684 101.379 304.474 101.617C304.263 101.846 304.098 102.121 303.979 102.441C303.869 102.752 303.814 103.087 303.814 103.444C303.814 103.801 303.869 104.14 303.979 104.46C304.098 104.772 304.263 105.046 304.474 105.284C304.684 105.513 304.936 105.696 305.229 105.834C305.531 105.962 305.87 106.026 306.245 106.026C306.621 106.026 306.96 105.962 307.262 105.834C307.564 105.696 307.82 105.513 308.031 105.284C308.242 105.046 308.402 104.772 308.512 104.46C308.631 104.14 308.69 103.801 308.69 103.444Z" fill="black"/>
<path d="M316.359 106.658C316.341 106.484 316.327 106.292 316.318 106.081C316.309 105.87 316.304 105.696 316.304 105.559H316.277C316.094 105.935 315.796 106.241 315.384 106.479C314.972 106.708 314.537 106.823 314.079 106.823C313.264 106.823 312.651 106.58 312.239 106.095C311.836 105.609 311.634 104.968 311.634 104.172V100.23H312.568V103.787C312.568 104.126 312.596 104.433 312.651 104.708C312.706 104.982 312.797 105.22 312.925 105.422C313.063 105.614 313.241 105.765 313.461 105.875C313.69 105.985 313.974 106.04 314.313 106.04C314.56 106.04 314.798 105.989 315.027 105.889C315.265 105.788 315.476 105.637 315.659 105.435C315.842 105.225 315.988 104.964 316.098 104.653C316.208 104.332 316.263 103.957 316.263 103.526V100.23H317.197V105.243C317.197 105.417 317.202 105.642 317.211 105.916C317.22 106.191 317.234 106.438 317.252 106.658H316.359Z" fill="black"/>
<path d="M320.632 106.658H319.698V96.2739H320.632V106.658Z" fill="black"/>
<path d="M328.419 105.573C328.144 105.985 327.787 106.296 327.348 106.507C326.908 106.717 326.455 106.823 325.988 106.823C325.484 106.823 325.027 106.736 324.614 106.562C324.212 106.388 323.864 106.15 323.571 105.848C323.287 105.545 323.062 105.188 322.898 104.776C322.742 104.364 322.664 103.92 322.664 103.444C322.664 102.968 322.742 102.524 322.898 102.112C323.062 101.699 323.287 101.342 323.571 101.04C323.864 100.738 324.212 100.5 324.614 100.326C325.027 100.152 325.484 100.065 325.988 100.065C326.455 100.065 326.908 100.175 327.348 100.395C327.787 100.605 328.144 100.921 328.419 101.342H328.447V96.2739H329.381V106.658H328.447V105.573H328.419ZM323.653 103.444C323.653 103.801 323.708 104.14 323.818 104.46C323.928 104.772 324.083 105.046 324.285 105.284C324.495 105.513 324.752 105.696 325.054 105.834C325.356 105.962 325.7 106.026 326.084 106.026C326.441 106.026 326.771 105.962 327.073 105.834C327.375 105.696 327.636 105.513 327.856 105.284C328.076 105.055 328.245 104.785 328.364 104.474C328.492 104.154 328.557 103.81 328.557 103.444C328.557 103.078 328.492 102.739 328.364 102.427C328.245 102.107 328.076 101.832 327.856 101.603C327.636 101.365 327.375 101.182 327.073 101.054C326.771 100.917 326.441 100.848 326.084 100.848C325.7 100.848 325.356 100.917 325.054 101.054C324.752 101.191 324.495 101.379 324.285 101.617C324.083 101.846 323.928 102.121 323.818 102.441C323.708 102.752 323.653 103.087 323.653 103.444Z" fill="black"/>
<path d="M336.272 105.573V106.658H335.338V96.2739H336.272V101.342H336.299C336.574 100.921 336.931 100.605 337.371 100.395C337.81 100.175 338.264 100.065 338.731 100.065C339.234 100.065 339.688 100.152 340.09 100.326C340.503 100.5 340.85 100.738 341.134 101.04C341.427 101.342 341.652 101.699 341.807 102.112C341.972 102.524 342.055 102.968 342.055 103.444C342.055 103.92 341.972 104.364 341.807 104.776C341.652 105.188 341.427 105.545 341.134 105.848C340.85 106.15 340.503 106.388 340.09 106.562C339.688 106.736 339.234 106.823 338.731 106.823C338.264 106.823 337.81 106.717 337.371 106.507C336.931 106.296 336.574 105.985 336.299 105.573H336.272ZM341.066 103.444C341.066 103.087 341.011 102.752 340.901 102.441C340.791 102.121 340.631 101.846 340.42 101.617C340.219 101.379 339.967 101.191 339.665 101.054C339.362 100.917 339.019 100.848 338.635 100.848C338.277 100.848 337.948 100.917 337.646 101.054C337.343 101.182 337.082 101.365 336.863 101.603C336.643 101.832 336.469 102.107 336.341 102.427C336.222 102.739 336.162 103.078 336.162 103.444C336.162 103.81 336.222 104.154 336.341 104.474C336.469 104.785 336.643 105.055 336.863 105.284C337.082 105.513 337.343 105.696 337.646 105.834C337.948 105.962 338.277 106.026 338.635 106.026C339.019 106.026 339.362 105.962 339.665 105.834C339.967 105.696 340.219 105.513 340.42 105.284C340.631 105.046 340.791 104.772 340.901 104.46C341.011 104.14 341.066 103.801 341.066 103.444Z" fill="black"/>
<path d="M348.96 102.949C348.932 102.345 348.735 101.846 348.369 101.452C348.012 101.049 347.499 100.848 346.831 100.848C346.519 100.848 346.231 100.907 345.965 101.026C345.7 101.136 345.466 101.292 345.265 101.493C345.063 101.686 344.903 101.91 344.784 102.166C344.665 102.414 344.596 102.675 344.578 102.949H348.96ZM349.907 103.252C349.907 103.316 349.907 103.384 349.907 103.458C349.907 103.531 349.903 103.609 349.894 103.691H344.564C344.574 104.012 344.638 104.314 344.757 104.598C344.876 104.881 345.041 105.129 345.251 105.339C345.462 105.55 345.709 105.719 345.993 105.848C346.277 105.967 346.583 106.026 346.913 106.026C347.398 106.026 347.815 105.916 348.163 105.696C348.52 105.468 348.79 105.207 348.973 104.914L349.674 105.463C349.289 105.948 348.864 106.296 348.397 106.507C347.939 106.717 347.444 106.823 346.913 106.823C346.437 106.823 345.993 106.74 345.581 106.576C345.178 106.402 344.83 106.163 344.537 105.861C344.244 105.559 344.01 105.202 343.836 104.79C343.672 104.378 343.589 103.929 343.589 103.444C343.589 102.959 343.672 102.51 343.836 102.098C344.001 101.686 344.23 101.329 344.523 101.026C344.816 100.724 345.16 100.491 345.553 100.326C345.947 100.152 346.373 100.065 346.831 100.065C347.334 100.065 347.778 100.152 348.163 100.326C348.548 100.491 348.868 100.72 349.125 101.013C349.381 101.297 349.573 101.631 349.701 102.015C349.839 102.4 349.907 102.812 349.907 103.252Z" fill="black"/>
<path d="M359.402 102.51C359.402 101.951 359.256 101.535 358.963 101.26C358.67 100.985 358.244 100.848 357.685 100.848C357.301 100.848 356.944 100.917 356.614 101.054C356.284 101.191 356.005 101.374 355.776 101.603L355.254 100.985C355.52 100.72 355.868 100.5 356.298 100.326C356.738 100.152 357.232 100.065 357.782 100.065C358.13 100.065 358.455 100.115 358.757 100.216C359.059 100.308 359.325 100.45 359.553 100.642C359.782 100.834 359.961 101.077 360.089 101.37C360.217 101.663 360.281 102.006 360.281 102.4V105.216C360.281 105.463 360.291 105.719 360.309 105.985C360.327 106.25 360.355 106.475 360.391 106.658H359.553C359.526 106.502 359.503 106.333 359.485 106.15C359.466 105.967 359.457 105.788 359.457 105.614H359.43C359.137 106.044 358.803 106.356 358.427 106.548C358.061 106.731 357.617 106.823 357.095 106.823C356.848 106.823 356.591 106.786 356.326 106.713C356.069 106.649 355.831 106.539 355.611 106.383C355.401 106.228 355.222 106.026 355.076 105.779C354.938 105.532 354.87 105.229 354.87 104.872C354.87 104.378 354.993 103.989 355.24 103.705C355.497 103.412 355.836 103.197 356.257 103.059C356.678 102.913 357.159 102.821 357.699 102.785C358.249 102.739 358.816 102.716 359.402 102.716V102.51ZM359.128 103.444C358.743 103.444 358.354 103.462 357.96 103.499C357.576 103.526 357.223 103.59 356.903 103.691C356.591 103.783 356.335 103.92 356.133 104.103C355.932 104.286 355.831 104.529 355.831 104.831C355.831 105.06 355.872 105.252 355.955 105.408C356.046 105.564 356.165 105.692 356.312 105.793C356.458 105.884 356.619 105.953 356.793 105.999C356.976 106.035 357.159 106.054 357.342 106.054C357.672 106.054 357.965 105.999 358.221 105.889C358.478 105.77 358.693 105.614 358.867 105.422C359.041 105.22 359.173 104.991 359.265 104.735C359.357 104.479 359.402 104.208 359.402 103.925V103.444H359.128Z" fill="black"/>
<path d="M366.108 101.754C365.97 101.489 365.76 101.274 365.476 101.109C365.201 100.935 364.885 100.848 364.528 100.848C364.363 100.848 364.199 100.866 364.034 100.903C363.869 100.939 363.722 100.999 363.594 101.081C363.466 101.164 363.361 101.269 363.278 101.397C363.205 101.525 363.168 101.677 363.168 101.851C363.168 102.153 363.292 102.386 363.539 102.551C363.786 102.707 364.176 102.839 364.707 102.949C365.467 103.105 366.025 103.334 366.382 103.636C366.749 103.929 366.932 104.328 366.932 104.831C366.932 105.197 366.859 105.509 366.712 105.765C366.575 106.012 366.392 106.218 366.163 106.383C365.934 106.539 365.673 106.649 365.38 106.713C365.096 106.786 364.807 106.823 364.514 106.823C364.029 106.823 363.558 106.722 363.1 106.521C362.642 106.319 362.266 106.003 361.973 105.573L362.715 105.023C362.88 105.307 363.123 105.545 363.443 105.738C363.764 105.93 364.116 106.026 364.501 106.026C364.702 106.026 364.894 106.008 365.078 105.971C365.261 105.935 365.421 105.87 365.558 105.779C365.696 105.687 365.806 105.573 365.888 105.435C365.97 105.289 366.012 105.11 366.012 104.9C366.012 104.561 365.847 104.309 365.517 104.144C365.197 103.97 364.73 103.81 364.116 103.664C363.924 103.618 363.718 103.563 363.498 103.499C363.287 103.426 363.091 103.325 362.907 103.197C362.724 103.059 362.573 102.89 362.454 102.688C362.335 102.487 362.276 102.235 362.276 101.933C362.276 101.603 362.34 101.324 362.468 101.095C362.596 100.857 362.765 100.665 362.976 100.518C363.196 100.363 363.443 100.248 363.718 100.175C363.992 100.102 364.276 100.065 364.569 100.065C365.018 100.065 365.453 100.166 365.874 100.367C366.295 100.569 366.611 100.852 366.822 101.219L366.108 101.754Z" fill="black"/>
<path d="M375.645 101.754C375.507 101.489 375.297 101.274 375.013 101.109C374.738 100.935 374.422 100.848 374.065 100.848C373.9 100.848 373.736 100.866 373.571 100.903C373.406 100.939 373.259 100.999 373.131 101.081C373.003 101.164 372.898 101.269 372.815 101.397C372.742 101.525 372.705 101.677 372.705 101.851C372.705 102.153 372.829 102.386 373.076 102.551C373.323 102.707 373.713 102.839 374.244 102.949C375.004 103.105 375.562 103.334 375.92 103.636C376.286 103.929 376.469 104.328 376.469 104.831C376.469 105.197 376.396 105.509 376.249 105.765C376.112 106.012 375.929 106.218 375.7 106.383C375.471 106.539 375.21 106.649 374.917 106.713C374.633 106.786 374.345 106.823 374.051 106.823C373.566 106.823 373.095 106.722 372.637 106.521C372.179 106.319 371.803 106.003 371.51 105.573L372.252 105.023C372.417 105.307 372.66 105.545 372.98 105.738C373.301 105.93 373.653 106.026 374.038 106.026C374.239 106.026 374.431 106.008 374.615 105.971C374.798 105.935 374.958 105.87 375.095 105.779C375.233 105.687 375.343 105.573 375.425 105.435C375.507 105.289 375.549 105.11 375.549 104.9C375.549 104.561 375.384 104.309 375.054 104.144C374.734 103.97 374.267 103.81 373.653 103.664C373.461 103.618 373.255 103.563 373.035 103.499C372.824 103.426 372.628 103.325 372.444 103.197C372.261 103.059 372.11 102.89 371.991 102.688C371.872 102.487 371.813 102.235 371.813 101.933C371.813 101.603 371.877 101.324 372.005 101.095C372.133 100.857 372.302 100.665 372.513 100.518C372.733 100.363 372.98 100.248 373.255 100.175C373.53 100.102 373.813 100.065 374.106 100.065C374.555 100.065 374.99 100.166 375.411 100.367C375.833 100.569 376.148 100.852 376.359 101.219L375.645 101.754Z" fill="black"/>
<path d="M379.276 106.658H378.342V100.23H379.276V106.658ZM379.468 97.7574C379.468 97.9497 379.399 98.1099 379.262 98.2381C379.124 98.3571 378.973 98.4167 378.809 98.4167C378.644 98.4167 378.493 98.3571 378.355 98.2381C378.218 98.1099 378.149 97.9497 378.149 97.7574C378.149 97.5651 378.218 97.4094 378.355 97.2904C378.493 97.1622 378.644 97.0981 378.809 97.0981C378.973 97.0981 379.124 97.1622 379.262 97.2904C379.399 97.4094 379.468 97.5651 379.468 97.7574Z" fill="black"/>
<path d="M382.682 101.329C382.865 100.953 383.144 100.651 383.52 100.422C383.904 100.184 384.33 100.065 384.797 100.065C384.971 100.065 385.15 100.083 385.333 100.12C385.525 100.156 385.708 100.23 385.882 100.34C386.065 100.44 386.23 100.578 386.377 100.752C386.532 100.926 386.665 101.15 386.775 101.425C386.995 100.985 387.293 100.651 387.668 100.422C388.053 100.184 388.506 100.065 389.028 100.065C389.843 100.065 390.452 100.308 390.855 100.793C391.267 101.278 391.473 101.919 391.473 102.716V106.658H390.539V103.1C390.539 102.423 390.41 101.878 390.154 101.466C389.907 101.054 389.481 100.848 388.877 100.848C388.538 100.848 388.249 100.917 388.011 101.054C387.782 101.191 387.595 101.374 387.448 101.603C387.311 101.823 387.21 102.075 387.146 102.359C387.082 102.643 387.05 102.936 387.05 103.238V106.658H386.116V102.908C386.116 102.597 386.093 102.313 386.047 102.057C386.001 101.8 385.919 101.585 385.8 101.411C385.69 101.228 385.534 101.091 385.333 100.999C385.131 100.898 384.875 100.848 384.564 100.848C384.344 100.848 384.12 100.898 383.891 100.999C383.671 101.1 383.469 101.255 383.286 101.466C383.112 101.667 382.97 101.928 382.861 102.249C382.751 102.56 382.696 102.931 382.696 103.361V106.658H381.762V101.645C381.762 101.471 381.757 101.246 381.748 100.971C381.739 100.697 381.725 100.45 381.707 100.23H382.6C382.618 100.404 382.632 100.596 382.641 100.807C382.65 101.017 382.654 101.191 382.654 101.329H382.682Z" fill="black"/>
<path d="M394.822 109.954H393.888V100.23H394.822V101.342H394.863C395.128 100.921 395.481 100.605 395.92 100.395C396.369 100.175 396.822 100.065 397.28 100.065C397.784 100.065 398.237 100.152 398.64 100.326C399.052 100.5 399.4 100.738 399.684 101.04C399.977 101.342 400.201 101.699 400.357 102.112C400.522 102.524 400.604 102.968 400.604 103.444C400.604 103.92 400.522 104.364 400.357 104.776C400.201 105.188 399.977 105.545 399.684 105.848C399.4 106.15 399.052 106.388 398.64 106.562C398.237 106.736 397.784 106.823 397.28 106.823C396.822 106.823 396.369 106.717 395.92 106.507C395.481 106.287 395.128 105.976 394.863 105.573H394.822V109.954ZM399.615 103.444C399.615 103.087 399.56 102.752 399.45 102.441C399.341 102.121 399.18 101.846 398.97 101.617C398.768 101.379 398.516 101.191 398.214 101.054C397.912 100.917 397.569 100.848 397.184 100.848C396.827 100.848 396.497 100.917 396.195 101.054C395.893 101.182 395.632 101.365 395.412 101.603C395.192 101.832 395.018 102.107 394.89 102.427C394.771 102.739 394.712 103.078 394.712 103.444C394.712 103.81 394.771 104.154 394.89 104.474C395.018 104.785 395.192 105.055 395.412 105.284C395.632 105.513 395.893 105.696 396.195 105.834C396.497 105.962 396.827 106.026 397.184 106.026C397.569 106.026 397.912 105.962 398.214 105.834C398.516 105.696 398.768 105.513 398.97 105.284C399.18 105.046 399.341 104.772 399.45 104.46C399.56 104.14 399.615 103.801 399.615 103.444Z" fill="black"/>
<path d="M403.568 106.658H402.634V96.2739H403.568V106.658Z" fill="black"/>
<path d="M410.971 102.949C410.943 102.345 410.746 101.846 410.38 101.452C410.023 101.049 409.51 100.848 408.842 100.848C408.53 100.848 408.242 100.907 407.976 101.026C407.711 101.136 407.477 101.292 407.276 101.493C407.074 101.686 406.914 101.91 406.795 102.166C406.676 102.414 406.607 102.675 406.589 102.949H410.971ZM411.918 103.252C411.918 103.316 411.918 103.384 411.918 103.458C411.918 103.531 411.914 103.609 411.905 103.691H406.575C406.584 104.012 406.649 104.314 406.768 104.598C406.887 104.881 407.051 105.129 407.262 105.339C407.473 105.55 407.72 105.719 408.004 105.848C408.288 105.967 408.594 106.026 408.924 106.026C409.409 106.026 409.826 105.916 410.174 105.696C410.531 105.468 410.801 105.207 410.984 104.914L411.685 105.463C411.3 105.948 410.874 106.296 410.407 106.507C409.95 106.717 409.455 106.823 408.924 106.823C408.448 106.823 408.004 106.74 407.592 106.576C407.189 106.402 406.841 106.163 406.548 105.861C406.255 105.559 406.021 105.202 405.847 104.79C405.682 104.378 405.6 103.929 405.6 103.444C405.6 102.959 405.682 102.51 405.847 102.098C406.012 101.686 406.241 101.329 406.534 101.026C406.827 100.724 407.171 100.491 407.564 100.326C407.958 100.152 408.384 100.065 408.842 100.065C409.345 100.065 409.789 100.152 410.174 100.326C410.559 100.491 410.879 100.72 411.135 101.013C411.392 101.297 411.584 101.631 411.712 102.015C411.85 102.4 411.918 102.812 411.918 103.252Z" fill="black"/>
<path d="M421.413 102.51C421.413 101.951 421.267 101.535 420.974 101.26C420.681 100.985 420.255 100.848 419.696 100.848C419.312 100.848 418.955 100.917 418.625 101.054C418.295 101.191 418.016 101.374 417.787 101.603L417.265 100.985C417.531 100.72 417.879 100.5 418.309 100.326C418.749 100.152 419.243 100.065 419.792 100.065C420.14 100.065 420.466 100.115 420.768 100.216C421.07 100.308 421.335 100.45 421.564 100.642C421.793 100.834 421.972 101.077 422.1 101.37C422.228 101.663 422.292 102.006 422.292 102.4V105.216C422.292 105.463 422.301 105.719 422.32 105.985C422.338 106.25 422.366 106.475 422.402 106.658H421.564C421.537 106.502 421.514 106.333 421.496 106.15C421.477 105.967 421.468 105.788 421.468 105.614H421.441C421.148 106.044 420.814 106.356 420.438 106.548C420.072 106.731 419.628 106.823 419.106 106.823C418.858 106.823 418.602 106.786 418.337 106.713C418.08 106.649 417.842 106.539 417.622 106.383C417.412 106.228 417.233 106.026 417.087 105.779C416.949 105.532 416.881 105.229 416.881 104.872C416.881 104.378 417.004 103.989 417.251 103.705C417.508 103.412 417.847 103.197 418.268 103.059C418.689 102.913 419.17 102.821 419.71 102.785C420.259 102.739 420.827 102.716 421.413 102.716V102.51ZM421.139 103.444C420.754 103.444 420.365 103.462 419.971 103.499C419.586 103.526 419.234 103.59 418.913 103.691C418.602 103.783 418.346 103.92 418.144 104.103C417.943 104.286 417.842 104.529 417.842 104.831C417.842 105.06 417.883 105.252 417.966 105.408C418.057 105.564 418.176 105.692 418.323 105.793C418.469 105.884 418.63 105.953 418.804 105.999C418.987 106.035 419.17 106.054 419.353 106.054C419.683 106.054 419.976 105.999 420.232 105.889C420.488 105.77 420.704 105.614 420.878 105.422C421.052 105.22 421.184 104.991 421.276 104.735C421.367 104.479 421.413 104.208 421.413 103.925V103.444H421.139Z" fill="black"/>
<path d="M428.119 101.754C427.981 101.489 427.771 101.274 427.487 101.109C427.212 100.935 426.896 100.848 426.539 100.848C426.374 100.848 426.209 100.866 426.045 100.903C425.88 100.939 425.733 100.999 425.605 101.081C425.477 101.164 425.372 101.269 425.289 101.397C425.216 101.525 425.179 101.677 425.179 101.851C425.179 102.153 425.303 102.386 425.55 102.551C425.797 102.707 426.187 102.839 426.718 102.949C427.478 103.105 428.036 103.334 428.393 103.636C428.76 103.929 428.943 104.328 428.943 104.831C428.943 105.197 428.87 105.509 428.723 105.765C428.586 106.012 428.403 106.218 428.174 106.383C427.945 106.539 427.684 106.649 427.391 106.713C427.107 106.786 426.818 106.823 426.525 106.823C426.04 106.823 425.568 106.722 425.111 106.521C424.653 106.319 424.277 106.003 423.984 105.573L424.726 105.023C424.891 105.307 425.133 105.545 425.454 105.738C425.774 105.93 426.127 106.026 426.512 106.026C426.713 106.026 426.905 106.008 427.088 105.971C427.272 105.935 427.432 105.87 427.569 105.779C427.707 105.687 427.816 105.573 427.899 105.435C427.981 105.289 428.023 105.11 428.023 104.9C428.023 104.561 427.858 104.309 427.528 104.144C427.208 103.97 426.741 103.81 426.127 103.664C425.935 103.618 425.729 103.563 425.509 103.499C425.298 103.426 425.101 103.325 424.918 103.197C424.735 103.059 424.584 102.89 424.465 102.688C424.346 102.487 424.286 102.235 424.286 101.933C424.286 101.603 424.351 101.324 424.479 101.095C424.607 100.857 424.776 100.665 424.987 100.518C425.207 100.363 425.454 100.248 425.729 100.175C426.003 100.102 426.287 100.065 426.58 100.065C427.029 100.065 427.464 100.166 427.885 100.367C428.306 100.569 428.622 100.852 428.833 101.219L428.119 101.754Z" fill="black"/>
<path d="M435.197 105.573V106.658H434.263V96.2739H435.197V101.342H435.225C435.499 100.921 435.856 100.605 436.296 100.395C436.735 100.175 437.189 100.065 437.656 100.065C438.159 100.065 438.613 100.152 439.016 100.326C439.428 100.5 439.776 100.738 440.059 101.04C440.352 101.342 440.577 101.699 440.732 102.112C440.897 102.524 440.98 102.968 440.98 103.444C440.98 103.92 440.897 104.364 440.732 104.776C440.577 105.188 440.352 105.545 440.059 105.848C439.776 106.15 439.428 106.388 439.016 106.562C438.613 106.736 438.159 106.823 437.656 106.823C437.189 106.823 436.735 106.717 436.296 106.507C435.856 106.296 435.499 105.985 435.225 105.573H435.197ZM439.991 103.444C439.991 103.087 439.936 102.752 439.826 102.441C439.716 102.121 439.556 101.846 439.345 101.617C439.144 101.379 438.892 101.191 438.59 101.054C438.288 100.917 437.944 100.848 437.56 100.848C437.202 100.848 436.873 100.917 436.571 101.054C436.268 101.182 436.007 101.365 435.788 101.603C435.568 101.832 435.394 102.107 435.266 102.427C435.147 102.739 435.087 103.078 435.087 103.444C435.087 103.81 435.147 104.154 435.266 104.474C435.394 104.785 435.568 105.055 435.788 105.284C436.007 105.513 436.268 105.696 436.571 105.834C436.873 105.962 437.202 106.026 437.56 106.026C437.944 106.026 438.288 105.962 438.59 105.834C438.892 105.696 439.144 105.513 439.345 105.284C439.556 105.046 439.716 104.772 439.826 104.46C439.936 104.14 439.991 103.801 439.991 103.444Z" fill="black"/>
<path d="M447.651 106.658C447.633 106.484 447.619 106.292 447.61 106.081C447.601 105.87 447.596 105.696 447.596 105.559H447.569C447.386 105.935 447.088 106.241 446.676 106.479C446.264 106.708 445.829 106.823 445.371 106.823C444.556 106.823 443.943 106.58 443.531 106.095C443.128 105.609 442.926 104.968 442.926 104.172V100.23H443.86V103.787C443.86 104.126 443.888 104.433 443.943 104.708C443.998 104.982 444.089 105.22 444.217 105.422C444.355 105.614 444.533 105.765 444.753 105.875C444.982 105.985 445.266 106.04 445.605 106.04C445.852 106.04 446.09 105.989 446.319 105.889C446.557 105.788 446.768 105.637 446.951 105.435C447.134 105.225 447.28 104.964 447.39 104.653C447.5 104.332 447.555 103.957 447.555 103.526V100.23H448.489V105.243C448.489 105.417 448.494 105.642 448.503 105.916C448.512 106.191 448.526 106.438 448.544 106.658H447.651Z" fill="black"/>
<path d="M453.174 105.655H453.201L455.193 100.23H456.209L453.009 108.32C452.817 108.814 452.569 109.208 452.267 109.501C451.974 109.803 451.548 109.954 450.99 109.954C450.706 109.954 450.427 109.927 450.152 109.872L450.248 109.02C450.468 109.094 450.697 109.13 450.935 109.13C451.255 109.13 451.507 109.03 451.69 108.828C451.873 108.636 452.034 108.357 452.171 107.99L452.693 106.644L449.946 100.23H450.99L453.174 105.655Z" fill="black"/>
<path d="M458.617 106.658H457.683V100.23H458.617V106.658ZM458.809 97.7574C458.809 97.9497 458.74 98.1099 458.603 98.2381C458.466 98.3571 458.315 98.4167 458.15 98.4167C457.985 98.4167 457.834 98.3571 457.697 98.2381C457.559 98.1099 457.49 97.9497 457.49 97.7574C457.49 97.5651 457.559 97.4094 457.697 97.2904C457.834 97.1622 457.985 97.0981 458.15 97.0981C458.315 97.0981 458.466 97.1622 458.603 97.2904C458.74 97.4094 458.809 97.5651 458.809 97.7574Z" fill="black"/>
<path d="M461.941 100.23C461.959 100.404 461.973 100.596 461.982 100.807C461.991 101.017 461.996 101.191 461.996 101.329H462.023C462.206 100.953 462.504 100.651 462.916 100.422C463.328 100.184 463.763 100.065 464.221 100.065C465.036 100.065 465.645 100.308 466.048 100.793C466.46 101.278 466.666 101.919 466.666 102.716V106.658H465.732V103.1C465.732 102.762 465.704 102.455 465.649 102.18C465.594 101.905 465.498 101.672 465.361 101.48C465.233 101.278 465.054 101.123 464.825 101.013C464.605 100.903 464.326 100.848 463.987 100.848C463.74 100.848 463.497 100.898 463.259 100.999C463.03 101.1 462.824 101.255 462.641 101.466C462.458 101.667 462.312 101.928 462.202 102.249C462.092 102.56 462.037 102.931 462.037 103.361V106.658H461.103V101.645C461.103 101.471 461.098 101.246 461.089 100.971C461.08 100.697 461.066 100.45 461.048 100.23H461.941Z" fill="black"/>
<path d="M469.427 107.949C469.684 108.279 470.032 108.558 470.471 108.787C470.92 109.016 471.392 109.13 471.886 109.13C472.344 109.13 472.733 109.062 473.054 108.924C473.374 108.796 473.63 108.618 473.823 108.389C474.024 108.16 474.171 107.89 474.262 107.578C474.354 107.276 474.4 106.951 474.4 106.603V105.394H474.372C474.125 105.797 473.772 106.109 473.315 106.328C472.866 106.548 472.408 106.658 471.941 106.658C471.437 106.658 470.979 106.576 470.567 106.411C470.165 106.246 469.817 106.022 469.524 105.738C469.24 105.445 469.015 105.097 468.85 104.694C468.695 104.291 468.617 103.856 468.617 103.389C468.617 102.931 468.695 102.501 468.85 102.098C469.015 101.695 469.24 101.342 469.524 101.04C469.817 100.738 470.165 100.5 470.567 100.326C470.979 100.152 471.437 100.065 471.941 100.065C472.408 100.065 472.866 100.175 473.315 100.395C473.763 100.614 474.116 100.93 474.372 101.342H474.4V100.23H475.334V106.603C475.334 106.951 475.283 107.322 475.183 107.716C475.091 108.109 474.912 108.471 474.647 108.801C474.39 109.13 474.038 109.405 473.589 109.625C473.141 109.845 472.559 109.954 471.845 109.954C471.25 109.954 470.682 109.84 470.142 109.611C469.601 109.382 469.139 109.066 468.754 108.663L469.427 107.949ZM469.606 103.361C469.606 103.7 469.661 104.021 469.771 104.323C469.881 104.625 470.036 104.891 470.238 105.12C470.448 105.349 470.705 105.532 471.007 105.669C471.309 105.797 471.653 105.861 472.037 105.861C472.394 105.861 472.724 105.802 473.026 105.683C473.328 105.564 473.589 105.394 473.809 105.175C474.029 104.955 474.198 104.694 474.317 104.392C474.445 104.08 474.51 103.737 474.51 103.361C474.51 103.023 474.445 102.702 474.317 102.4C474.198 102.098 474.029 101.832 473.809 101.603C473.589 101.374 473.328 101.191 473.026 101.054C472.724 100.917 472.394 100.848 472.037 100.848C471.653 100.848 471.309 100.917 471.007 101.054C470.705 101.191 470.448 101.374 470.238 101.603C470.036 101.832 469.881 102.098 469.771 102.4C469.661 102.702 469.606 103.023 469.606 103.361Z" fill="black"/>
<path d="M485.248 102.51C485.248 101.951 485.102 101.535 484.809 101.26C484.516 100.985 484.09 100.848 483.531 100.848C483.147 100.848 482.79 100.917 482.46 101.054C482.13 101.191 481.851 101.374 481.622 101.603L481.1 100.985C481.366 100.72 481.714 100.5 482.144 100.326C482.584 100.152 483.078 100.065 483.628 100.065C483.976 100.065 484.301 100.115 484.603 100.216C484.905 100.308 485.171 100.45 485.4 100.642C485.628 100.834 485.807 101.077 485.935 101.37C486.063 101.663 486.127 102.006 486.127 102.4V105.216C486.127 105.463 486.137 105.719 486.155 105.985C486.173 106.25 486.201 106.475 486.237 106.658H485.4C485.372 106.502 485.349 106.333 485.331 106.15C485.313 105.967 485.303 105.788 485.303 105.614H485.276C484.983 106.044 484.649 106.356 484.273 106.548C483.907 106.731 483.463 106.823 482.941 106.823C482.694 106.823 482.437 106.786 482.172 106.713C481.915 106.649 481.677 106.539 481.457 106.383C481.247 106.228 481.068 106.026 480.922 105.779C480.784 105.532 480.716 105.229 480.716 104.872C480.716 104.378 480.839 103.989 481.087 103.705C481.343 103.412 481.682 103.197 482.103 103.059C482.524 102.913 483.005 102.821 483.545 102.785C484.095 102.739 484.662 102.716 485.248 102.716V102.51ZM484.974 103.444C484.589 103.444 484.2 103.462 483.806 103.499C483.422 103.526 483.069 103.59 482.749 103.691C482.437 103.783 482.181 103.92 481.979 104.103C481.778 104.286 481.677 104.529 481.677 104.831C481.677 105.06 481.718 105.252 481.801 105.408C481.892 105.564 482.011 105.692 482.158 105.793C482.304 105.884 482.465 105.953 482.639 105.999C482.822 106.035 483.005 106.054 483.188 106.054C483.518 106.054 483.811 105.999 484.067 105.889C484.324 105.77 484.539 105.614 484.713 105.422C484.887 105.22 485.02 104.991 485.111 104.735C485.203 104.479 485.248 104.208 485.248 103.925V103.444H484.974Z" fill="black"/>
<path d="M489.372 100.23C489.39 100.404 489.404 100.596 489.413 100.807C489.422 101.017 489.426 101.191 489.426 101.329H489.454C489.637 100.953 489.935 100.651 490.347 100.422C490.759 100.184 491.194 100.065 491.652 100.065C492.467 100.065 493.076 100.308 493.478 100.793C493.891 101.278 494.097 101.919 494.097 102.716V106.658H493.163V103.1C493.163 102.762 493.135 102.455 493.08 102.18C493.025 101.905 492.929 101.672 492.792 101.48C492.663 101.278 492.485 101.123 492.256 101.013C492.036 100.903 491.757 100.848 491.418 100.848C491.171 100.848 490.928 100.898 490.69 100.999C490.461 101.1 490.255 101.255 490.072 101.466C489.889 101.667 489.742 101.928 489.633 102.249C489.523 102.56 489.468 102.931 489.468 103.361V106.658H488.534V101.645C488.534 101.471 488.529 101.246 488.52 100.971C488.511 100.697 488.497 100.45 488.479 100.23H489.372Z" fill="black"/>
<path d="M498.726 105.655H498.754L500.745 100.23H501.762L498.561 108.32C498.369 108.814 498.122 109.208 497.82 109.501C497.527 109.803 497.101 109.954 496.542 109.954C496.258 109.954 495.979 109.927 495.704 109.872L495.801 109.02C496.02 109.094 496.249 109.13 496.487 109.13C496.808 109.13 497.06 109.03 497.243 108.828C497.426 108.636 497.586 108.357 497.723 107.99L498.245 106.644L495.498 100.23H496.542L498.726 105.655Z" fill="black"/>
<path d="M513.042 103.444C513.042 103.929 512.955 104.378 512.781 104.79C512.617 105.202 512.383 105.559 512.081 105.861C511.779 106.163 511.417 106.402 510.996 106.576C510.575 106.74 510.112 106.823 509.609 106.823C509.114 106.823 508.656 106.74 508.235 106.576C507.814 106.402 507.452 106.163 507.15 105.861C506.848 105.559 506.61 105.202 506.436 104.79C506.271 104.378 506.188 103.929 506.188 103.444C506.188 102.959 506.271 102.51 506.436 102.098C506.61 101.686 506.848 101.329 507.15 101.026C507.452 100.724 507.814 100.491 508.235 100.326C508.656 100.152 509.114 100.065 509.609 100.065C510.112 100.065 510.575 100.152 510.996 100.326C511.417 100.491 511.779 100.724 512.081 101.026C512.383 101.329 512.617 101.686 512.781 102.098C512.955 102.51 513.042 102.959 513.042 103.444ZM512.053 103.444C512.053 103.087 511.994 102.752 511.875 102.441C511.765 102.121 511.605 101.846 511.394 101.617C511.184 101.379 510.927 101.191 510.625 101.054C510.323 100.917 509.984 100.848 509.609 100.848C509.233 100.848 508.894 100.917 508.592 101.054C508.299 101.191 508.047 101.379 507.837 101.617C507.626 101.846 507.461 102.121 507.342 102.441C507.232 102.752 507.177 103.087 507.177 103.444C507.177 103.801 507.232 104.14 507.342 104.46C507.461 104.772 507.626 105.046 507.837 105.284C508.047 105.513 508.299 105.696 508.592 105.834C508.894 105.962 509.233 106.026 509.609 106.026C509.984 106.026 510.323 105.962 510.625 105.834C510.927 105.696 511.184 105.513 511.394 105.284C511.605 105.046 511.765 104.772 511.875 104.46C511.994 104.14 512.053 103.801 512.053 103.444Z" fill="black"/>
<path d="M517.95 101.013H516.137V104.762C516.137 105.001 516.16 105.197 516.206 105.353C516.252 105.509 516.316 105.632 516.398 105.724C516.49 105.806 516.595 105.866 516.714 105.903C516.833 105.93 516.962 105.944 517.099 105.944C517.227 105.944 517.36 105.925 517.497 105.889C517.644 105.852 517.781 105.802 517.909 105.738L517.95 106.548C517.786 106.612 517.612 106.658 517.429 106.685C517.255 106.722 517.062 106.74 516.852 106.74C516.678 106.74 516.495 106.717 516.302 106.672C516.11 106.626 515.931 106.539 515.767 106.411C515.602 106.283 515.464 106.109 515.354 105.889C515.254 105.669 515.203 105.381 515.203 105.023V101.013H513.871V100.23H515.203V98.4167H516.137V100.23H517.95V101.013Z" fill="black"/>
<path d="M520.401 101.287C520.575 100.912 520.863 100.614 521.266 100.395C521.669 100.175 522.099 100.065 522.557 100.065C523.372 100.065 523.981 100.308 524.384 100.793C524.796 101.278 525.002 101.919 525.002 102.716V106.658H524.068V103.1C524.068 102.762 524.041 102.455 523.986 102.18C523.931 101.905 523.835 101.672 523.697 101.48C523.569 101.278 523.39 101.123 523.161 101.013C522.942 100.903 522.662 100.848 522.324 100.848C522.076 100.848 521.834 100.898 521.596 100.999C521.367 101.1 521.161 101.255 520.978 101.466C520.794 101.667 520.648 101.928 520.538 102.249C520.428 102.56 520.373 102.931 520.373 103.361V106.658H519.439V96.2739H520.373V101.287H520.401Z" fill="black"/>
<path d="M532.323 102.949C532.296 102.345 532.099 101.846 531.733 101.452C531.375 101.049 530.863 100.848 530.194 100.848C529.883 100.848 529.594 100.907 529.329 101.026C529.063 101.136 528.83 101.292 528.628 101.493C528.427 101.686 528.267 101.91 528.148 102.166C528.029 102.414 527.96 102.675 527.942 102.949H532.323ZM533.271 103.252C533.271 103.316 533.271 103.384 533.271 103.458C533.271 103.531 533.266 103.609 533.257 103.691H527.928C527.937 104.012 528.001 104.314 528.12 104.598C528.239 104.881 528.404 105.129 528.615 105.339C528.825 105.55 529.072 105.719 529.356 105.848C529.64 105.967 529.947 106.026 530.277 106.026C530.762 106.026 531.179 105.916 531.527 105.696C531.884 105.468 532.154 105.207 532.337 104.914L533.037 105.463C532.653 105.948 532.227 106.296 531.76 106.507C531.302 106.717 530.808 106.823 530.277 106.823C529.8 106.823 529.356 106.74 528.944 106.576C528.541 106.402 528.193 106.163 527.9 105.861C527.607 105.559 527.374 105.202 527.2 104.79C527.035 104.378 526.953 103.929 526.953 103.444C526.953 102.959 527.035 102.51 527.2 102.098C527.365 101.686 527.594 101.329 527.887 101.026C528.18 100.724 528.523 100.491 528.917 100.326C529.311 100.152 529.736 100.065 530.194 100.065C530.698 100.065 531.142 100.152 531.527 100.326C531.911 100.491 532.232 100.72 532.488 101.013C532.744 101.297 532.937 101.631 533.065 102.015C533.202 102.4 533.271 102.812 533.271 103.252Z" fill="black"/>
<path d="M535.28 101.645C535.28 101.471 535.275 101.246 535.266 100.971C535.257 100.697 535.243 100.45 535.225 100.23H536.118C536.136 100.404 536.15 100.596 536.159 100.807C536.168 101.017 536.173 101.191 536.173 101.329H536.2C536.383 100.953 536.658 100.651 537.024 100.422C537.391 100.184 537.803 100.065 538.261 100.065C538.38 100.065 538.485 100.069 538.576 100.079C538.677 100.088 538.778 100.106 538.879 100.134L538.755 101.013C538.7 100.994 538.608 100.976 538.48 100.958C538.352 100.939 538.224 100.93 538.096 100.93C537.848 100.93 537.61 100.976 537.382 101.068C537.153 101.159 536.951 101.306 536.777 101.507C536.612 101.699 536.475 101.951 536.365 102.263C536.264 102.565 536.214 102.931 536.214 103.361V106.658H535.28V101.645Z" fill="black"/>
<path d="M548.567 102.949C548.54 102.345 548.343 101.846 547.976 101.452C547.619 101.049 547.106 100.848 546.438 100.848C546.127 100.848 545.838 100.907 545.573 101.026C545.307 101.136 545.074 101.292 544.872 101.493C544.671 101.686 544.51 101.91 544.391 102.166C544.272 102.414 544.204 102.675 544.185 102.949H548.567ZM549.515 103.252C549.515 103.316 549.515 103.384 549.515 103.458C549.515 103.531 549.51 103.609 549.501 103.691H544.172C544.181 104.012 544.245 104.314 544.364 104.598C544.483 104.881 544.648 105.129 544.858 105.339C545.069 105.55 545.316 105.719 545.6 105.848C545.884 105.967 546.191 106.026 546.52 106.026C547.006 106.026 547.422 105.916 547.77 105.696C548.127 105.468 548.398 105.207 548.581 104.914L549.281 105.463C548.897 105.948 548.471 106.296 548.004 106.507C547.546 106.717 547.052 106.823 546.52 106.823C546.044 106.823 545.6 106.74 545.188 106.576C544.785 106.402 544.437 106.163 544.144 105.861C543.851 105.559 543.618 105.202 543.444 104.79C543.279 104.378 543.196 103.929 543.196 103.444C543.196 102.959 543.279 102.51 543.444 102.098C543.608 101.686 543.837 101.329 544.13 101.026C544.423 100.724 544.767 100.491 545.161 100.326C545.554 100.152 545.98 100.065 546.438 100.065C546.942 100.065 547.386 100.152 547.77 100.326C548.155 100.491 548.475 100.72 548.732 101.013C548.988 101.297 549.181 101.631 549.309 102.015C549.446 102.4 549.515 102.812 549.515 103.252Z" fill="black"/>
<path d="M552.485 106.658H551.551V96.2739H552.485V106.658Z" fill="black"/>
<path d="M559.888 102.949C559.861 102.345 559.664 101.846 559.297 101.452C558.94 101.049 558.427 100.848 557.759 100.848C557.448 100.848 557.159 100.907 556.894 101.026C556.628 101.136 556.395 101.292 556.193 101.493C555.992 101.686 555.831 101.91 555.712 102.166C555.593 102.414 555.525 102.675 555.506 102.949H559.888ZM560.836 103.252C560.836 103.316 560.836 103.384 560.836 103.458C560.836 103.531 560.831 103.609 560.822 103.691H555.493C555.502 104.012 555.566 104.314 555.685 104.598C555.804 104.881 555.969 105.129 556.179 105.339C556.39 105.55 556.637 105.719 556.921 105.848C557.205 105.967 557.512 106.026 557.841 106.026C558.327 106.026 558.743 105.916 559.091 105.696C559.449 105.468 559.719 105.207 559.902 104.914L560.602 105.463C560.218 105.948 559.792 106.296 559.325 106.507C558.867 106.717 558.373 106.823 557.841 106.823C557.365 106.823 556.921 106.74 556.509 106.576C556.106 106.402 555.758 106.163 555.465 105.861C555.172 105.559 554.939 105.202 554.765 104.79C554.6 104.378 554.517 103.929 554.517 103.444C554.517 102.959 554.6 102.51 554.765 102.098C554.93 101.686 555.158 101.329 555.451 101.026C555.745 100.724 556.088 100.491 556.482 100.326C556.875 100.152 557.301 100.065 557.759 100.065C558.263 100.065 558.707 100.152 559.091 100.326C559.476 100.491 559.796 100.72 560.053 101.013C560.309 101.297 560.502 101.631 560.63 102.015C560.767 102.4 560.836 102.812 560.836 103.252Z" fill="black"/>
<path d="M567.474 101.699C567.318 101.452 567.089 101.251 566.787 101.095C566.494 100.93 566.173 100.848 565.825 100.848C565.45 100.848 565.111 100.917 564.809 101.054C564.507 101.182 564.246 101.365 564.026 101.603C563.815 101.832 563.651 102.107 563.532 102.427C563.422 102.739 563.367 103.078 563.367 103.444C563.367 103.81 563.422 104.149 563.532 104.46C563.651 104.772 563.815 105.046 564.026 105.284C564.237 105.513 564.493 105.696 564.795 105.834C565.097 105.962 565.436 106.026 565.812 106.026C566.224 106.026 566.572 105.948 566.856 105.793C567.139 105.637 567.373 105.435 567.556 105.188L568.257 105.71C567.982 106.049 567.643 106.319 567.24 106.521C566.846 106.722 566.37 106.823 565.812 106.823C565.29 106.823 564.818 106.74 564.397 106.576C563.976 106.402 563.614 106.163 563.312 105.861C563.019 105.559 562.79 105.202 562.625 104.79C562.46 104.378 562.378 103.929 562.378 103.444C562.378 102.959 562.46 102.51 562.625 102.098C562.79 101.686 563.019 101.329 563.312 101.026C563.614 100.724 563.976 100.491 564.397 100.326C564.818 100.152 565.29 100.065 565.812 100.065C566.242 100.065 566.677 100.161 567.117 100.353C567.565 100.537 567.927 100.811 568.202 101.177L567.474 101.699Z" fill="black"/>
<path d="M572.611 101.013H570.798V104.762C570.798 105.001 570.821 105.197 570.866 105.353C570.912 105.509 570.976 105.632 571.059 105.724C571.15 105.806 571.256 105.866 571.375 105.903C571.494 105.93 571.622 105.944 571.759 105.944C571.887 105.944 572.02 105.925 572.157 105.889C572.304 105.852 572.441 105.802 572.57 105.738L572.611 106.548C572.446 106.612 572.272 106.658 572.089 106.685C571.915 106.722 571.723 106.74 571.512 106.74C571.338 106.74 571.155 106.717 570.963 106.672C570.77 106.626 570.592 106.539 570.427 106.411C570.262 106.283 570.125 106.109 570.015 105.889C569.914 105.669 569.864 105.381 569.864 105.023V101.013H568.531V100.23H569.864V98.4167H570.798V100.23H572.611V101.013Z" fill="black"/>
<path d="M574.072 101.645C574.072 101.471 574.067 101.246 574.058 100.971C574.049 100.697 574.035 100.45 574.017 100.23H574.91C574.928 100.404 574.942 100.596 574.951 100.807C574.96 101.017 574.965 101.191 574.965 101.329H574.992C575.175 100.953 575.45 100.651 575.816 100.422C576.183 100.184 576.595 100.065 577.053 100.065C577.172 100.065 577.277 100.069 577.369 100.079C577.469 100.088 577.57 100.106 577.671 100.134L577.547 101.013C577.492 100.994 577.401 100.976 577.272 100.958C577.144 100.939 577.016 100.93 576.888 100.93C576.641 100.93 576.402 100.976 576.174 101.068C575.945 101.159 575.743 101.306 575.569 101.507C575.404 101.699 575.267 101.951 575.157 102.263C575.056 102.565 575.006 102.931 575.006 103.361V106.658H574.072V101.645Z" fill="black"/>
<path d="M585.167 103.444C585.167 103.929 585.08 104.378 584.906 104.79C584.741 105.202 584.508 105.559 584.206 105.861C583.903 106.163 583.542 106.402 583.121 106.576C582.699 106.74 582.237 106.823 581.733 106.823C581.239 106.823 580.781 106.74 580.36 106.576C579.939 106.402 579.577 106.163 579.275 105.861C578.972 105.559 578.734 105.202 578.56 104.79C578.396 104.378 578.313 103.929 578.313 103.444C578.313 102.959 578.396 102.51 578.56 102.098C578.734 101.686 578.972 101.329 579.275 101.026C579.577 100.724 579.939 100.491 580.36 100.326C580.781 100.152 581.239 100.065 581.733 100.065C582.237 100.065 582.699 100.152 583.121 100.326C583.542 100.491 583.903 100.724 584.206 101.026C584.508 101.329 584.741 101.686 584.906 102.098C585.08 102.51 585.167 102.959 585.167 103.444ZM584.178 103.444C584.178 103.087 584.119 102.752 584 102.441C583.89 102.121 583.73 101.846 583.519 101.617C583.308 101.379 583.052 101.191 582.75 101.054C582.448 100.917 582.109 100.848 581.733 100.848C581.358 100.848 581.019 100.917 580.717 101.054C580.424 101.191 580.172 101.379 579.961 101.617C579.751 101.846 579.586 102.121 579.467 102.441C579.357 102.752 579.302 103.087 579.302 103.444C579.302 103.801 579.357 104.14 579.467 104.46C579.586 104.772 579.751 105.046 579.961 105.284C580.172 105.513 580.424 105.696 580.717 105.834C581.019 105.962 581.358 106.026 581.733 106.026C582.109 106.026 582.448 105.962 582.75 105.834C583.052 105.696 583.308 105.513 583.519 105.284C583.73 105.046 583.89 104.772 584 104.46C584.119 104.14 584.178 103.801 584.178 103.444Z" fill="black"/>
<path d="M588.015 100.23C588.033 100.404 588.047 100.596 588.056 100.807C588.065 101.017 588.07 101.191 588.07 101.329H588.097C588.28 100.953 588.578 100.651 588.99 100.422C589.402 100.184 589.837 100.065 590.295 100.065C591.11 100.065 591.719 100.308 592.122 100.793C592.534 101.278 592.74 101.919 592.74 102.716V106.658H591.806V103.1C591.806 102.762 591.778 102.455 591.723 102.18C591.669 101.905 591.572 101.672 591.435 101.48C591.307 101.278 591.128 101.123 590.899 101.013C590.68 100.903 590.4 100.848 590.061 100.848C589.814 100.848 589.572 100.898 589.333 100.999C589.105 101.1 588.899 101.255 588.715 101.466C588.532 101.667 588.386 101.928 588.276 102.249C588.166 102.56 588.111 102.931 588.111 103.361V106.658H587.177V101.645C587.177 101.471 587.172 101.246 587.163 100.971C587.154 100.697 587.14 100.45 587.122 100.23H588.015Z" fill="black"/>
<path d="M596.106 106.658H595.172V100.23H596.106V106.658ZM596.298 97.7574C596.298 97.9497 596.229 98.1099 596.092 98.2381C595.955 98.3571 595.804 98.4167 595.639 98.4167C595.474 98.4167 595.323 98.3571 595.186 98.2381C595.048 98.1099 594.98 97.9497 594.98 97.7574C594.98 97.5651 595.048 97.4094 595.186 97.2904C595.323 97.1622 595.474 97.0981 595.639 97.0981C595.804 97.0981 595.955 97.1622 596.092 97.2904C596.229 97.4094 596.298 97.5651 596.298 97.7574Z" fill="black"/>
<path d="M603.221 101.699C603.065 101.452 602.836 101.251 602.534 101.095C602.241 100.93 601.921 100.848 601.573 100.848C601.197 100.848 600.858 100.917 600.556 101.054C600.254 101.182 599.993 101.365 599.773 101.603C599.563 101.832 599.398 102.107 599.279 102.427C599.169 102.739 599.114 103.078 599.114 103.444C599.114 103.81 599.169 104.149 599.279 104.46C599.398 104.772 599.563 105.046 599.773 105.284C599.984 105.513 600.24 105.696 600.542 105.834C600.845 105.962 601.183 106.026 601.559 106.026C601.971 106.026 602.319 105.948 602.603 105.793C602.887 105.637 603.12 105.435 603.303 105.188L604.004 105.71C603.729 106.049 603.39 106.319 602.987 106.521C602.594 106.722 602.117 106.823 601.559 106.823C601.037 106.823 600.565 106.74 600.144 106.576C599.723 106.402 599.361 106.163 599.059 105.861C598.766 105.559 598.537 105.202 598.372 104.79C598.207 104.378 598.125 103.929 598.125 103.444C598.125 102.959 598.207 102.51 598.372 102.098C598.537 101.686 598.766 101.329 599.059 101.026C599.361 100.724 599.723 100.491 600.144 100.326C600.565 100.152 601.037 100.065 601.559 100.065C601.989 100.065 602.424 100.161 602.864 100.353C603.312 100.537 603.674 100.811 603.949 101.177L603.221 101.699Z" fill="black"/>
<path d="M606.751 105.999C606.751 106.191 606.682 106.365 606.545 106.521C606.407 106.667 606.229 106.74 606.009 106.74C605.789 106.74 605.611 106.667 605.473 106.521C605.336 106.365 605.267 106.191 605.267 105.999C605.267 105.806 605.336 105.637 605.473 105.49C605.611 105.335 605.789 105.257 606.009 105.257C606.229 105.257 606.407 105.335 606.545 105.49C606.682 105.637 606.751 105.806 606.751 105.999Z" fill="black"/>
<path d="M33.1605 38.3957V5.03984H32.9651L17.679 38.3957H16.8L1.56273 5.03984H1.41622V38.3957H0.341797V3.81891H2.24645L17.2883 36.8329L32.3302 3.81891H34.2349V38.3957H33.1605Z" fill="url(#paint0_linear_320_62)"/>
<path d="M43.5262 26.919C43.5262 28.2864 43.7215 29.6376 44.1122 30.9724C44.5355 32.3073 45.1541 33.512 45.968 34.5864C46.8146 35.6283 47.8727 36.4748 49.1425 37.1259C50.4122 37.7771 51.9099 38.1027 53.6355 38.1027C55.3936 38.1027 56.9564 37.7608 58.3239 37.0771C59.6913 36.3608 60.8797 35.3352 61.889 34.0004L62.6704 34.6841C61.5634 36.1166 60.2611 37.2073 58.7634 37.9562C57.2983 38.705 55.589 39.0794 53.6355 39.0794C51.975 39.0794 50.4611 38.7864 49.0936 38.2004C47.7262 37.5818 46.5378 36.7353 45.5285 35.6608C44.5518 34.5864 43.7866 33.3004 43.2332 31.8027C42.7122 30.305 42.4518 28.6771 42.4518 26.919C42.4518 25.2259 42.7285 23.6631 43.282 22.2306C43.8355 20.798 44.5843 19.5608 45.5285 18.5189C46.5053 17.4771 47.6448 16.6794 48.9471 16.1259C50.2494 15.5399 51.6494 15.2468 53.1471 15.2468C54.9053 15.2468 56.4355 15.5561 57.7378 16.1747C59.0402 16.7934 60.1146 17.6073 60.9611 18.6166C61.8402 19.6259 62.4913 20.7817 62.9146 22.0841C63.3378 23.3538 63.5495 24.6562 63.5495 25.991V26.919H43.5262ZM62.5239 25.991C62.4913 24.5259 62.2309 23.191 61.7425 21.9864C61.2867 20.7817 60.6518 19.7561 59.8378 18.9096C59.0239 18.0306 58.0471 17.3631 56.9076 16.9073C55.7681 16.4189 54.4983 16.1747 53.0983 16.1747C51.4053 16.1747 49.9564 16.5329 48.7518 17.2492C47.5471 17.9329 46.5541 18.7957 45.7727 19.8375C45.0239 20.8468 44.4704 21.9213 44.1122 23.0608C43.7541 24.1678 43.575 25.1445 43.575 25.991H62.5239Z" fill="url(#paint1_linear_320_62)"/>
<path d="M70.6633 26.919C70.6633 28.2864 70.8587 29.6376 71.2494 30.9724C71.6726 32.3073 72.2912 33.512 73.1052 34.5864C73.9517 35.6283 75.0098 36.4748 76.2796 37.1259C77.5494 37.7771 79.047 38.1027 80.7726 38.1027C82.5308 38.1027 84.0936 37.7608 85.461 37.0771C86.8285 36.3608 88.0168 35.3352 89.0261 34.0004L89.8075 34.6841C88.7006 36.1166 87.3982 37.2073 85.9005 37.9562C84.4354 38.705 82.7261 39.0794 80.7726 39.0794C79.1122 39.0794 77.5982 38.7864 76.2308 38.2004C74.8633 37.5818 73.6749 36.7353 72.6656 35.6608C71.6889 34.5864 70.9238 33.3004 70.3703 31.8027C69.8494 30.305 69.5889 28.6771 69.5889 26.919C69.5889 25.2259 69.8656 23.6631 70.4191 22.2306C70.9726 20.798 71.7215 19.5608 72.6656 18.5189C73.6424 17.4771 74.7819 16.6794 76.0843 16.1259C77.3866 15.5399 78.7866 15.2468 80.2843 15.2468C82.0424 15.2468 83.5726 15.5561 84.875 16.1747C86.1773 16.7934 87.2517 17.6073 88.0982 18.6166C88.9773 19.6259 89.6285 20.7817 90.0517 22.0841C90.475 23.3538 90.6866 24.6562 90.6866 25.991V26.919H70.6633ZM89.661 25.991C89.6285 24.5259 89.368 23.191 88.8796 21.9864C88.4238 20.7817 87.7889 19.7561 86.975 18.9096C86.161 18.0306 85.1843 17.3631 84.0447 16.9073C82.9052 16.4189 81.6354 16.1747 80.2354 16.1747C78.5424 16.1747 77.0936 16.5329 75.8889 17.2492C74.6843 17.9329 73.6912 18.7957 72.9098 19.8375C72.161 20.8468 71.6075 21.9213 71.2494 23.0608C70.8912 24.1678 70.7121 25.1445 70.7121 25.991H89.661Z" fill="url(#paint2_linear_320_62)"/>
<path d="M107.373 38.4446C106.982 38.6073 106.526 38.7376 106.005 38.8353C105.484 38.9329 104.98 38.9818 104.491 38.9818C102.733 38.9818 101.463 38.4934 100.682 37.5166C99.933 36.5073 99.5586 35.2539 99.5586 33.7562V16.8585H94.6749V15.9306H99.5097V9.33752H100.633V15.9306H107.226V16.8585H100.633V33.7562C100.633 35.2864 101.007 36.3934 101.756 37.0771C102.505 37.7283 103.498 38.0539 104.735 38.0539C105.647 38.0539 106.477 37.9073 107.226 37.6143L107.373 38.4446Z" fill="url(#paint3_linear_320_62)"/>
<path d="M134.414 38.4446C134.024 38.6073 133.568 38.7376 133.047 38.8353C132.526 38.9329 132.021 38.9818 131.533 38.9818C129.775 38.9818 128.505 38.4934 127.724 37.5166C126.975 36.5073 126.6 35.2539 126.6 33.7562V16.8585H121.717V15.9306H126.551V9.33752H127.675V15.9306H134.268V16.8585H127.675V33.7562C127.675 35.2864 128.049 36.3934 128.798 37.0771C129.547 37.7283 130.54 38.0539 131.777 38.0539C132.689 38.0539 133.519 37.9073 134.268 37.6143L134.414 38.4446Z" fill="url(#paint4_linear_320_62)"/>
<path d="M141.726 21.8399C142.051 20.798 142.507 19.8701 143.093 19.0561C143.712 18.2422 144.412 17.5585 145.193 17.005C145.975 16.4189 146.821 15.9794 147.733 15.6864C148.644 15.3933 149.589 15.2468 150.565 15.2468C152.128 15.2468 153.43 15.5236 154.472 16.0771C155.514 16.6306 156.344 17.3631 156.963 18.2747C157.582 19.1864 158.021 20.212 158.282 21.3515C158.542 22.491 158.672 23.6469 158.672 24.8189V38.3957H157.598V24.9166C157.598 24.005 157.5 23.0282 157.305 21.9864C157.11 20.9445 156.735 20.0003 156.182 19.1538C155.661 18.3073 154.944 17.6073 154.033 17.0538C153.121 16.4678 151.965 16.1747 150.565 16.1747C149.328 16.1747 148.156 16.4352 147.049 16.9561C145.975 17.4445 145.03 18.1608 144.216 19.105C143.435 20.0492 142.8 21.205 142.312 22.5724C141.856 23.9073 141.628 25.4376 141.628 27.1631V38.3957H140.554V1.47472H141.628V21.8399H141.726Z" fill="url(#paint5_linear_320_62)"/>
<path d="M167.479 26.919C167.479 28.2864 167.675 29.6376 168.065 30.9724C168.489 32.3073 169.107 33.512 169.921 34.5864C170.768 35.6283 171.826 36.4748 173.096 37.1259C174.365 37.7771 175.863 38.1027 177.589 38.1027C179.347 38.1027 180.91 37.7608 182.277 37.0771C183.645 36.3608 184.833 35.3352 185.842 34.0004L186.624 34.6841C185.517 36.1166 184.214 37.2073 182.717 37.9562C181.252 38.705 179.542 39.0794 177.589 39.0794C175.928 39.0794 174.414 38.7864 173.047 38.2004C171.679 37.5818 170.491 36.7353 169.482 35.6608C168.505 34.5864 167.74 33.3004 167.186 31.8027C166.665 30.305 166.405 28.6771 166.405 26.919C166.405 25.2259 166.682 23.6631 167.235 22.2306C167.789 20.798 168.538 19.5608 169.482 18.5189C170.459 17.4771 171.598 16.6794 172.9 16.1259C174.203 15.5399 175.603 15.2468 177.1 15.2468C178.859 15.2468 180.389 15.5561 181.691 16.1747C182.993 16.7934 184.068 17.6073 184.914 18.6166C185.793 19.6259 186.445 20.7817 186.868 22.0841C187.291 23.3538 187.503 24.6562 187.503 25.991V26.919H167.479ZM186.477 25.991C186.445 24.5259 186.184 23.191 185.696 21.9864C185.24 20.7817 184.605 19.7561 183.791 18.9096C182.977 18.0306 182 17.3631 180.861 16.9073C179.721 16.4189 178.452 16.1747 177.052 16.1747C175.359 16.1747 173.91 16.5329 172.705 17.2492C171.5 17.9329 170.507 18.7957 169.726 19.8375C168.977 20.8468 168.424 21.9213 168.065 23.0608C167.707 24.1678 167.528 25.1445 167.528 25.991H186.477Z" fill="url(#paint6_linear_320_62)"/>
<path d="M232.34 38.3957L228.237 28.4817H208.165L203.916 38.3957H202.744L217.737 3.81891H219.105L233.512 38.3957H232.34ZM218.372 4.50263L208.556 27.5538H227.895L218.372 4.50263Z" fill="url(#paint7_linear_320_62)"/>
<path d="M239.373 38.3957V1.47472H240.447V38.3957H239.373Z" fill="url(#paint8_linear_320_62)"/>
<path d="M250.39 38.3957V1.47472H251.464V38.3957H250.39Z" fill="url(#paint9_linear_320_62)"/>
<path d="M259.356 26.4794V25.5027H268.146V26.4794H259.356Z" fill="url(#paint10_linear_320_62)"/>
<path d="M276.586 7.48171C276.293 7.48171 276.032 7.36775 275.804 7.13984C275.576 6.91194 275.463 6.60264 275.463 6.21194C275.463 5.8538 275.576 5.56077 275.804 5.33286C276.032 5.10496 276.293 4.991 276.586 4.991C276.879 4.991 277.139 5.10496 277.367 5.33286C277.595 5.56077 277.709 5.8538 277.709 6.21194C277.709 6.60264 277.579 6.91194 277.318 7.13984C277.09 7.36775 276.846 7.48171 276.586 7.48171ZM276.049 38.3957V15.9306H277.123V38.3957H276.049Z" fill="url(#paint11_linear_320_62)"/>
<path d="M288.335 21.8399C288.661 20.798 289.133 19.8701 289.752 19.0561C290.37 18.2422 291.07 17.5585 291.852 17.005C292.633 16.4189 293.48 15.9794 294.391 15.6864C295.303 15.3933 296.247 15.2468 297.224 15.2468C298.787 15.2468 300.089 15.5236 301.131 16.0771C302.173 16.6306 303.003 17.3631 303.621 18.2747C304.24 19.1864 304.68 20.212 304.94 21.3515C305.2 22.491 305.331 23.6469 305.331 24.8189V38.3957H304.256V24.9166C304.256 24.005 304.159 23.0282 303.963 21.9864C303.768 20.9445 303.394 20.0003 302.84 19.1538C302.319 18.3073 301.603 17.6073 300.691 17.0538C299.78 16.4678 298.624 16.1747 297.224 16.1747C295.987 16.1747 294.814 16.4352 293.707 16.9561C292.633 17.4445 291.689 18.1608 290.875 19.105C290.093 20.0492 289.459 21.205 288.97 22.5724C288.514 23.9073 288.287 25.4376 288.287 27.1631V38.3957H287.212V21.5957C287.212 21.2375 287.196 20.798 287.163 20.2771C287.163 19.7561 287.147 19.2352 287.114 18.7143C287.114 18.1608 287.098 17.6399 287.066 17.1515C287.033 16.6631 287 16.2561 286.968 15.9306H288.042C288.075 16.2561 288.091 16.6631 288.091 17.1515C288.124 17.6399 288.14 18.1771 288.14 18.7631C288.173 19.3166 288.189 19.8701 288.189 20.4236C288.221 20.9445 288.238 21.4166 288.238 21.8399H288.335Z" fill="url(#paint12_linear_320_62)"/>
<path d="M312.962 26.4794V25.5027H321.753V26.4794H312.962Z" fill="url(#paint13_linear_320_62)"/>
<path d="M363.744 21.1073C363.744 23.7771 363.288 26.2352 362.376 28.4817C361.497 30.6957 360.26 32.6166 358.665 34.2445C357.102 35.8399 355.23 37.0934 353.048 38.005C350.867 38.9166 348.506 39.3725 345.967 39.3725C343.427 39.3725 341.067 38.9166 338.885 38.005C336.704 37.0934 334.816 35.8399 333.22 34.2445C331.657 32.6166 330.42 30.6957 329.509 28.4817C328.63 26.2352 328.19 23.7771 328.19 21.1073C328.19 18.4375 328.63 15.9957 329.509 13.7817C330.42 11.5352 331.657 9.61427 333.22 8.01892C334.816 6.39101 336.688 5.12124 338.837 4.20961C341.018 3.29798 343.395 2.84216 345.967 2.84216C348.539 2.84216 350.899 3.29798 353.048 4.20961C355.23 5.12124 357.102 6.39101 358.665 8.01892C360.26 9.61427 361.497 11.5352 362.376 13.7817C363.288 15.9957 363.744 18.4375 363.744 21.1073ZM362.669 21.1073C362.669 18.698 362.262 16.4515 361.448 14.3678C360.634 12.2515 359.478 10.4119 357.981 8.84915C356.516 7.28636 354.758 6.06542 352.706 5.18635C350.655 4.27472 348.409 3.81891 345.967 3.81891C343.525 3.81891 341.278 4.27472 339.227 5.18635C337.176 6.06542 335.402 7.28636 333.904 8.84915C332.439 10.4119 331.299 12.2515 330.485 14.3678C329.671 16.4515 329.264 18.698 329.264 21.1073C329.264 23.5166 329.655 25.7794 330.437 27.8957C331.25 29.9794 332.39 31.8027 333.855 33.3655C335.32 34.9283 337.078 36.1655 339.13 37.0771C341.181 37.9562 343.46 38.3957 345.967 38.3957C348.474 38.3957 350.753 37.9562 352.804 37.0771C354.855 36.1655 356.613 34.9283 358.078 33.3655C359.544 31.8027 360.667 29.9794 361.448 27.8957C362.262 25.7794 362.669 23.5166 362.669 21.1073Z" fill="url(#paint14_linear_320_62)"/>
<path d="M373.514 21.8399C373.84 20.798 374.312 19.8701 374.931 19.0561C375.549 18.2422 376.249 17.5585 377.031 17.005C377.812 16.4189 378.659 15.9794 379.57 15.6864C380.482 15.3933 381.426 15.2468 382.403 15.2468C383.966 15.2468 385.268 15.5236 386.31 16.0771C387.352 16.6306 388.182 17.3631 388.801 18.2747C389.419 19.1864 389.859 20.212 390.119 21.3515C390.38 22.491 390.51 23.6469 390.51 24.8189V38.3957H389.435V24.9166C389.435 24.005 389.338 23.0282 389.142 21.9864C388.947 20.9445 388.573 20.0003 388.019 19.1538C387.498 18.3073 386.782 17.6073 385.87 17.0538C384.959 16.4678 383.803 16.1747 382.403 16.1747C381.166 16.1747 379.994 16.4352 378.887 16.9561C377.812 17.4445 376.868 18.1608 376.054 19.105C375.273 20.0492 374.638 21.205 374.149 22.5724C373.694 23.9073 373.466 25.4376 373.466 27.1631V38.3957H372.391V21.5957C372.391 21.2375 372.375 20.798 372.342 20.2771C372.342 19.7561 372.326 19.2352 372.294 18.7143C372.294 18.1608 372.277 17.6399 372.245 17.1515C372.212 16.6631 372.18 16.2561 372.147 15.9306H373.221C373.254 16.2561 373.27 16.6631 373.27 17.1515C373.303 17.6399 373.319 18.1771 373.319 18.7631C373.352 19.3166 373.368 19.8701 373.368 20.4236C373.401 20.9445 373.417 21.4166 373.417 21.8399H373.514Z" fill="url(#paint15_linear_320_62)"/>
<path d="M399.314 26.919C399.314 28.2864 399.509 29.6376 399.9 30.9724C400.323 32.3073 400.941 33.512 401.755 34.5864C402.602 35.6283 403.66 36.4748 404.93 37.1259C406.2 37.7771 407.697 38.1027 409.423 38.1027C411.181 38.1027 412.744 37.7608 414.111 37.0771C415.479 36.3608 416.667 35.3352 417.676 34.0004L418.458 34.6841C417.351 36.1166 416.048 37.2073 414.551 37.9562C413.086 38.705 411.376 39.0794 409.423 39.0794C407.762 39.0794 406.248 38.7864 404.881 38.2004C403.514 37.5818 402.325 36.7353 401.316 35.6608C400.339 34.5864 399.574 33.3004 399.021 31.8027C398.5 30.305 398.239 28.6771 398.239 26.919C398.239 25.2259 398.516 23.6631 399.069 22.2306C399.623 20.798 400.372 19.5608 401.316 18.5189C402.293 17.4771 403.432 16.6794 404.734 16.1259C406.037 15.5399 407.437 15.2468 408.934 15.2468C410.693 15.2468 412.223 15.5561 413.525 16.1747C414.828 16.7934 415.902 17.6073 416.748 18.6166C417.628 19.6259 418.279 20.7817 418.702 22.0841C419.125 23.3538 419.337 24.6562 419.337 25.991V26.919H399.314ZM418.311 25.991C418.279 24.5259 418.018 23.191 417.53 21.9864C417.074 20.7817 416.439 19.7561 415.625 18.9096C414.811 18.0306 413.834 17.3631 412.695 16.9073C411.555 16.4189 410.286 16.1747 408.886 16.1747C407.193 16.1747 405.744 16.5329 404.539 17.2492C403.334 17.9329 402.341 18.7957 401.56 19.8375C400.811 20.8468 400.258 21.9213 399.9 23.0608C399.541 24.1678 399.362 25.1445 399.362 25.991H418.311Z" fill="url(#paint16_linear_320_62)"/>
<path d="M439.734 38.3957V3.81891H459.855V4.79566H440.76V19.9841H458.732V20.9608H440.76V37.419H460.637V38.3957H439.734Z" fill="url(#paint17_linear_320_62)"/>
<path d="M478.894 38.3957H477.234L464.243 3.81891H465.415L478.015 37.419H478.113L490.908 3.81891H492.08L478.894 38.3957Z" fill="url(#paint18_linear_320_62)"/>
<path d="M529.581 12.4143C529.581 13.8794 529.304 15.1817 528.751 16.3213C528.23 17.4282 527.513 18.3561 526.602 19.105C525.69 19.8538 524.616 20.4236 523.379 20.8143C522.174 21.205 520.888 21.4003 519.52 21.4003H510.583V38.3957H509.509V3.81891H518.886C520.123 3.81891 521.376 3.96542 522.646 4.25844C523.916 4.51891 525.055 4.97472 526.065 5.62589C527.106 6.27705 527.953 7.15612 528.604 8.2631C529.255 9.37008 529.581 10.7538 529.581 12.4143ZM528.507 12.4143C528.507 10.9492 528.23 9.72822 527.676 8.75147C527.123 7.77473 526.407 6.99333 525.527 6.40729C524.648 5.82124 523.655 5.39798 522.548 5.13751C521.474 4.87705 520.4 4.74682 519.325 4.74682H510.583V20.4724H519.569C520.644 20.4724 521.718 20.3259 522.793 20.0329C523.867 19.7399 524.827 19.2678 525.674 18.6166C526.52 17.9654 527.204 17.1352 527.725 16.1259C528.246 15.084 528.507 13.8468 528.507 12.4143Z" fill="url(#paint19_linear_320_62)"/>
<path d="M537.261 38.3957V1.47472H538.336V38.3957H537.261Z" fill="url(#paint20_linear_320_62)"/>
<path d="M563.711 33.3166C563.711 34.1632 563.744 35.0748 563.809 36.0515C563.906 36.9957 564.004 37.7771 564.102 38.3957H563.076C563.011 38.0701 562.962 37.6794 562.93 37.2236C562.897 36.7353 562.848 36.2469 562.783 35.7585C562.75 35.2376 562.718 34.7329 562.685 34.2445C562.685 33.7562 562.685 33.3492 562.685 33.0236H562.539C561.888 35.0748 560.764 36.605 559.169 37.6143C557.574 38.5911 555.864 39.0794 554.041 39.0794C553.13 39.0794 552.218 38.9492 551.306 38.6887C550.427 38.4283 549.63 38.0376 548.913 37.5166C548.197 36.9957 547.611 36.3283 547.155 35.5143C546.732 34.7004 546.52 33.7399 546.52 32.6329C546.52 31.0376 546.927 29.7515 547.741 28.7748C548.588 27.798 549.63 27.0492 550.867 26.5283C552.104 25.9748 553.423 25.6166 554.823 25.4538C556.255 25.291 557.557 25.2096 558.73 25.2096H562.637V23.4027C562.637 20.8957 561.969 19.0724 560.634 17.9329C559.299 16.7608 557.557 16.1747 555.409 16.1747C554.074 16.1747 552.82 16.4189 551.648 16.9073C550.509 17.3957 549.483 18.0468 548.571 18.8608L547.985 18.0306C549.027 17.1189 550.199 16.4352 551.502 15.9794C552.837 15.491 554.139 15.2468 555.409 15.2468C557.981 15.2468 559.999 15.9143 561.464 17.2492C562.962 18.5515 563.711 20.6189 563.711 23.4515V33.3166ZM562.637 26.1376H559.169C557.932 26.1376 556.63 26.219 555.262 26.3817C553.895 26.512 552.641 26.805 551.502 27.2608C550.362 27.7166 549.418 28.3678 548.669 29.2143C547.953 30.0608 547.595 31.2004 547.595 32.6329C547.595 33.6748 547.79 34.5539 548.181 35.2701C548.604 35.9539 549.125 36.5073 549.743 36.9306C550.395 37.3539 551.095 37.6632 551.843 37.8585C552.625 38.0539 553.357 38.1515 554.041 38.1515C555.702 38.1515 557.085 37.8422 558.192 37.2236C559.299 36.605 560.178 35.8236 560.83 34.8794C561.513 33.9027 561.985 32.8445 562.246 31.705C562.506 30.5329 562.637 29.3934 562.637 28.2864V26.1376Z" fill="url(#paint21_linear_320_62)"/>
<path d="M581.485 38.4446C581.095 38.6073 580.639 38.7376 580.118 38.8353C579.597 38.9329 579.092 38.9818 578.604 38.9818C576.846 38.9818 575.576 38.4934 574.795 37.5166C574.046 36.5073 573.671 35.2539 573.671 33.7562V16.8585H568.788V15.9306H573.623V9.33752H574.746V15.9306H581.339V16.8585H574.746V33.7562C574.746 35.2864 575.12 36.3934 575.869 37.0771C576.618 37.7283 577.611 38.0539 578.848 38.0539C579.76 38.0539 580.59 37.9073 581.339 37.6143L581.485 38.4446Z" fill="url(#paint22_linear_320_62)"/>
<path d="M596.416 2.01193C596.09 1.94681 595.764 1.89797 595.439 1.86542C595.113 1.8003 594.771 1.76774 594.413 1.76774C593.534 1.76774 592.785 1.94681 592.167 2.30495C591.548 2.66309 591.043 3.13519 590.653 3.72123C590.295 4.27472 590.034 4.90961 589.871 5.62589C589.709 6.34217 589.627 7.07473 589.627 7.82357V15.9306H595.732V16.8585H589.627V38.3957H588.553V16.8585H583.816V15.9306H588.504V7.87241C588.504 6.50496 588.683 5.36542 589.041 4.45379C589.399 3.54216 589.855 2.82588 590.409 2.30495C590.995 1.78402 591.629 1.42588 592.313 1.23053C592.997 1.00263 593.681 0.888672 594.364 0.888672C595.211 0.888672 595.96 0.986346 596.611 1.18169L596.416 2.01193Z" fill="url(#paint23_linear_320_62)"/>
<path d="M622.945 27.1143C622.945 28.8724 622.652 30.4841 622.066 31.9492C621.513 33.4143 620.715 34.6841 619.673 35.7585C618.631 36.8004 617.378 37.6143 615.913 38.2004C614.48 38.7864 612.901 39.0794 611.175 39.0794C609.45 39.0794 607.871 38.7864 606.438 38.2004C605.006 37.6143 603.768 36.8004 602.727 35.7585C601.685 34.6841 600.871 33.4143 600.285 31.9492C599.731 30.4841 599.455 28.8724 599.455 27.1143C599.455 25.3562 599.731 23.7608 600.285 22.3282C600.871 20.8631 601.685 19.6096 602.727 18.5678C603.768 17.5259 605.006 16.712 606.438 16.1259C607.871 15.5399 609.45 15.2468 611.175 15.2468C612.901 15.2468 614.48 15.5399 615.913 16.1259C617.378 16.712 618.631 17.5259 619.673 18.5678C620.715 19.6096 621.513 20.8631 622.066 22.3282C622.652 23.7608 622.945 25.3562 622.945 27.1143ZM621.871 27.1143C621.871 25.6166 621.627 24.2003 621.138 22.8655C620.65 21.5306 619.934 20.3748 618.989 19.398C618.078 18.3887 616.955 17.6073 615.62 17.0538C614.317 16.4678 612.836 16.1747 611.175 16.1747C609.515 16.1747 608.034 16.4678 606.731 17.0538C605.429 17.6073 604.306 18.3887 603.362 19.398C602.45 20.3748 601.75 21.5306 601.261 22.8655C600.773 24.2003 600.529 25.6166 600.529 27.1143C600.529 28.6445 600.773 30.0771 601.261 31.412C601.75 32.7469 602.45 33.919 603.362 34.9283C604.306 35.905 605.429 36.6864 606.731 37.2725C608.034 37.8585 609.515 38.1515 611.175 38.1515C612.836 38.1515 614.317 37.8585 615.62 37.2725C616.955 36.6864 618.078 35.905 618.989 34.9283C619.934 33.919 620.65 32.7469 621.138 31.412C621.627 30.0771 621.871 28.6445 621.871 27.1143Z" fill="url(#paint24_linear_320_62)"/>
<path d="M632.247 21.8399C632.898 19.4957 633.94 17.8189 635.373 16.8096C636.805 15.7678 638.352 15.2468 640.012 15.2468C640.175 15.2468 640.322 15.2468 640.452 15.2468C640.582 15.2468 640.729 15.2631 640.891 15.2957V16.2236C640.761 16.191 640.631 16.1747 640.501 16.1747C640.403 16.1747 640.322 16.1747 640.257 16.1747C638.824 16.1747 637.603 16.5003 636.594 17.1515C635.584 17.7701 634.754 18.6003 634.103 19.6422C633.452 20.6515 632.963 21.791 632.638 23.0608C632.345 24.298 632.198 25.5352 632.198 26.7724V38.3957H631.124V21.5957C631.124 21.2375 631.108 20.798 631.075 20.2771C631.075 19.7561 631.059 19.2352 631.026 18.7143C631.026 18.1608 631.01 17.6399 630.977 17.1515C630.945 16.6631 630.912 16.2561 630.88 15.9306H631.954C631.987 16.2561 632.003 16.6631 632.003 17.1515C632.036 17.6399 632.052 18.1771 632.052 18.7631C632.084 19.3166 632.101 19.8701 632.101 20.4236C632.133 20.9445 632.15 21.4166 632.15 21.8399H632.247Z" fill="url(#paint25_linear_320_62)"/>
<path d="M663.668 22.1329C664.319 19.9189 665.426 18.2259 666.989 17.0538C668.552 15.8492 670.326 15.2468 672.312 15.2468C673.81 15.2468 675.064 15.5236 676.073 16.0771C677.115 16.6306 677.929 17.3631 678.515 18.2747C679.133 19.1864 679.573 20.212 679.833 21.3515C680.094 22.491 680.224 23.6469 680.224 24.8189V38.3957H679.15V24.9166C679.15 24.005 679.036 23.0282 678.808 21.9864C678.613 20.9445 678.254 20.0003 677.733 19.1538C677.213 18.3073 676.513 17.6073 675.633 17.0538C674.754 16.4678 673.647 16.1747 672.312 16.1747C671.14 16.1747 670.033 16.4352 668.992 16.9561C667.982 17.4445 667.087 18.1608 666.306 19.105C665.557 20.0492 664.954 21.205 664.499 22.5724C664.043 23.9073 663.815 25.4376 663.815 27.1631V38.3957H662.74V24.9166C662.74 24.005 662.643 23.0282 662.447 21.9864C662.285 20.9445 661.959 20.0003 661.471 19.1538C660.982 18.3073 660.299 17.6073 659.419 17.0538C658.573 16.4678 657.482 16.1747 656.147 16.1747C654.975 16.1747 653.868 16.4352 652.826 16.9561C651.817 17.4445 650.922 18.1608 650.14 19.105C649.392 20.0492 648.789 21.205 648.333 22.5724C647.91 23.9073 647.699 25.4376 647.699 27.1631V38.3957H646.624V21.5957C646.624 21.2375 646.608 20.798 646.575 20.2771C646.575 19.7561 646.559 19.2352 646.526 18.7143C646.526 18.1608 646.51 17.6399 646.478 17.1515C646.445 16.6631 646.412 16.2561 646.38 15.9306H647.454C647.487 16.2561 647.503 16.6631 647.503 17.1515C647.536 17.6399 647.552 18.1771 647.552 18.7631C647.585 19.3166 647.601 19.8701 647.601 20.4236C647.633 20.9445 647.65 21.4166 647.65 21.8399H647.747C648.073 20.798 648.529 19.8701 649.115 19.0561C649.701 18.2422 650.352 17.5585 651.068 17.005C651.817 16.4189 652.615 15.9794 653.461 15.6864C654.34 15.3933 655.236 15.2468 656.147 15.2468C657.319 15.2468 658.329 15.4259 659.175 15.784C660.054 16.1422 660.787 16.6306 661.373 17.2492C661.959 17.8678 662.431 18.6003 662.789 19.4468C663.147 20.2608 663.408 21.1562 663.571 22.1329H663.668Z" fill="url(#paint26_linear_320_62)"/>
<defs>
<linearGradient id="paint0_linear_320_62" x1="340.283" y1="0.888672" x2="340.283" y2="39.3725" gradientUnits="userSpaceOnUse">
<stop/>
<stop offset="1" stop-opacity="0.5"/>
</linearGradient>
<linearGradient id="paint1_linear_320_62" x1="340.283" y1="0.888672" x2="340.283" y2="39.3725" gradientUnits="userSpaceOnUse">
<stop/>
<stop offset="1" stop-opacity="0.5"/>
</linearGradient>
<linearGradient id="paint2_linear_320_62" x1="340.283" y1="0.888672" x2="340.283" y2="39.3725" gradientUnits="userSpaceOnUse">
<stop/>
<stop offset="1" stop-opacity="0.5"/>
</linearGradient>
<linearGradient id="paint3_linear_320_62" x1="340.283" y1="0.888672" x2="340.283" y2="39.3725" gradientUnits="userSpaceOnUse">
<stop/>
<stop offset="1" stop-opacity="0.5"/>
</linearGradient>
<linearGradient id="paint4_linear_320_62" x1="340.283" y1="0.888672" x2="340.283" y2="39.3725" gradientUnits="userSpaceOnUse">
<stop/>
<stop offset="1" stop-opacity="0.5"/>
</linearGradient>
<linearGradient id="paint5_linear_320_62" x1="340.283" y1="0.888672" x2="340.283" y2="39.3725" gradientUnits="userSpaceOnUse">
<stop/>
<stop offset="1" stop-opacity="0.5"/>
</linearGradient>
<linearGradient id="paint6_linear_320_62" x1="340.283" y1="0.888672" x2="340.283" y2="39.3725" gradientUnits="userSpaceOnUse">
<stop/>
<stop offset="1" stop-opacity="0.5"/>
</linearGradient>
<linearGradient id="paint7_linear_320_62" x1="340.283" y1="0.888672" x2="340.283" y2="39.3725" gradientUnits="userSpaceOnUse">
<stop/>
<stop offset="1" stop-opacity="0.5"/>
</linearGradient>
<linearGradient id="paint8_linear_320_62" x1="340.283" y1="0.888672" x2="340.283" y2="39.3725" gradientUnits="userSpaceOnUse">
<stop/>
<stop offset="1" stop-opacity="0.5"/>
</linearGradient>
<linearGradient id="paint9_linear_320_62" x1="340.283" y1="0.888672" x2="340.283" y2="39.3725" gradientUnits="userSpaceOnUse">
<stop/>
<stop offset="1" stop-opacity="0.5"/>
</linearGradient>
<linearGradient id="paint10_linear_320_62" x1="340.283" y1="0.888672" x2="340.283" y2="39.3725" gradientUnits="userSpaceOnUse">
<stop/>
<stop offset="1" stop-opacity="0.5"/>
</linearGradient>
<linearGradient id="paint11_linear_320_62" x1="340.283" y1="0.888672" x2="340.283" y2="39.3725" gradientUnits="userSpaceOnUse">
<stop/>
<stop offset="1" stop-opacity="0.5"/>
</linearGradient>
<linearGradient id="paint12_linear_320_62" x1="340.283" y1="0.888672" x2="340.283" y2="39.3725" gradientUnits="userSpaceOnUse">
<stop/>
<stop offset="1" stop-opacity="0.5"/>
</linearGradient>
<linearGradient id="paint13_linear_320_62" x1="340.283" y1="0.888672" x2="340.283" y2="39.3725" gradientUnits="userSpaceOnUse">
<stop/>
<stop offset="1" stop-opacity="0.5"/>
</linearGradient>
<linearGradient id="paint14_linear_320_62" x1="340.283" y1="0.888672" x2="340.283" y2="39.3725" gradientUnits="userSpaceOnUse">
<stop/>
<stop offset="1" stop-opacity="0.5"/>
</linearGradient>
<linearGradient id="paint15_linear_320_62" x1="340.283" y1="0.888672" x2="340.283" y2="39.3725" gradientUnits="userSpaceOnUse">
<stop/>
<stop offset="1" stop-opacity="0.5"/>
</linearGradient>
<linearGradient id="paint16_linear_320_62" x1="340.283" y1="0.888672" x2="340.283" y2="39.3725" gradientUnits="userSpaceOnUse">
<stop/>
<stop offset="1" stop-opacity="0.5"/>
</linearGradient>
<linearGradient id="paint17_linear_320_62" x1="340.283" y1="0.888672" x2="340.283" y2="39.3725" gradientUnits="userSpaceOnUse">
<stop/>
<stop offset="1" stop-opacity="0.5"/>
</linearGradient>
<linearGradient id="paint18_linear_320_62" x1="340.283" y1="0.888672" x2="340.283" y2="39.3725" gradientUnits="userSpaceOnUse">
<stop/>
<stop offset="1" stop-opacity="0.5"/>
</linearGradient>
<linearGradient id="paint19_linear_320_62" x1="340.283" y1="0.888672" x2="340.283" y2="39.3725" gradientUnits="userSpaceOnUse">
<stop/>
<stop offset="1" stop-opacity="0.5"/>
</linearGradient>
<linearGradient id="paint20_linear_320_62" x1="340.283" y1="0.888672" x2="340.283" y2="39.3725" gradientUnits="userSpaceOnUse">
<stop/>
<stop offset="1" stop-opacity="0.5"/>
</linearGradient>
<linearGradient id="paint21_linear_320_62" x1="340.283" y1="0.888672" x2="340.283" y2="39.3725" gradientUnits="userSpaceOnUse">
<stop/>
<stop offset="1" stop-opacity="0.5"/>
</linearGradient>
<linearGradient id="paint22_linear_320_62" x1="340.283" y1="0.888672" x2="340.283" y2="39.3725" gradientUnits="userSpaceOnUse">
<stop/>
<stop offset="1" stop-opacity="0.5"/>
</linearGradient>
<linearGradient id="paint23_linear_320_62" x1="340.283" y1="0.888672" x2="340.283" y2="39.3725" gradientUnits="userSpaceOnUse">
<stop/>
<stop offset="1" stop-opacity="0.5"/>
</linearGradient>
<linearGradient id="paint24_linear_320_62" x1="340.283" y1="0.888672" x2="340.283" y2="39.3725" gradientUnits="userSpaceOnUse">
<stop/>
<stop offset="1" stop-opacity="0.5"/>
</linearGradient>
<linearGradient id="paint25_linear_320_62" x1="340.283" y1="0.888672" x2="340.283" y2="39.3725" gradientUnits="userSpaceOnUse">
<stop/>
<stop offset="1" stop-opacity="0.5"/>
</linearGradient>
<linearGradient id="paint26_linear_320_62" x1="340.283" y1="0.888672" x2="340.283" y2="39.3725" gradientUnits="userSpaceOnUse">
<stop/>
<stop offset="1" stop-opacity="0.5"/>
</linearGradient>
</defs>
</svg>
