<svg width="24" height="8" viewBox="0 0 24 8" fill="none" xmlns="http://www.w3.org/2000/svg">
<path d="M3.66811 7.06621C4.24636 7.06621 4.76865 6.86802 5.23498 6.47165C5.7013 6.07527 6.03706 5.57396 6.24224 4.96774H22.1347C22.4518 4.96774 22.7174 4.83343 22.9316 4.56483C23.1465 4.29716 23.2539 3.96513 23.2539 3.56875C23.2539 3.17237 23.1465 2.83988 22.9316 2.57128C22.7174 2.3036 22.4518 2.16977 22.1347 2.16977H6.24224C6.03706 1.56354 5.7013 1.06224 5.23498 0.665858C4.76865 0.269479 4.24636 0.0712891 3.66811 0.0712891C2.88468 0.0712891 2.2225 0.409378 1.68155 1.08555C1.14061 1.76173 0.870142 2.58946 0.870142 3.56875C0.870142 4.54804 1.14061 5.37577 1.68155 6.05195C2.2225 6.72813 2.88468 7.06621 3.66811 7.06621Z" fill="white"/>
</svg>
