<svg width="24" height="8" viewBox="0 0 24 8" fill="none" xmlns="http://www.w3.org/2000/svg">
<path d="M3.61538 7.29864C4.19363 7.29864 4.71591 7.10045 5.18224 6.70407C5.64857 6.30769 5.98433 5.80639 6.18951 5.20016H22.082C22.3991 5.20016 22.6647 5.06586 22.8788 4.79725C23.0937 4.52958 23.2012 4.19755 23.2012 3.80117C23.2012 3.40479 23.0937 3.0723 22.8788 2.8037C22.6647 2.53602 22.3991 2.40219 22.082 2.40219H6.18951C5.98433 1.79596 5.64857 1.29466 5.18224 0.89828C4.71591 0.501901 4.19363 0.303711 3.61538 0.303711C2.83195 0.303711 2.16976 0.6418 1.62882 1.31798C1.08788 1.99415 0.817408 2.82188 0.817408 3.80117C0.817408 4.78046 1.08788 5.6082 1.62882 6.28437C2.16976 6.96055 2.83195 7.29864 3.61538 7.29864Z" fill="white"/>
</svg>
