<svg width="24" height="8" viewBox="0 0 24 8" fill="none" xmlns="http://www.w3.org/2000/svg">
<path d="M3.61538 7.54229C4.19363 7.54229 4.71591 7.3441 5.18224 6.94772C5.64857 6.55134 5.98433 6.05004 6.18951 5.44381H22.082C22.3991 5.44381 22.6647 5.30951 22.8788 5.0409C23.0937 4.77323 23.2012 4.44121 23.2012 4.04483C23.2012 3.64845 23.0937 3.31595 22.8788 3.04735C22.6647 2.77968 22.3991 2.64584 22.082 2.64584H6.18951C5.98433 2.03961 5.64857 1.53831 5.18224 1.14193C4.71591 0.745553 4.19363 0.547363 3.61538 0.547363C2.83195 0.547363 2.16976 0.885452 1.62882 1.56163C1.08788 2.2378 0.817408 3.06554 0.817408 4.04483C0.817408 5.02412 1.08788 5.85185 1.62882 6.52802C2.16976 7.2042 2.83195 7.54229 3.61538 7.54229Z" fill="white"/>
</svg>
